<?xml version="1.0" encoding="utf-8"?>
<!-- Generator: Adobe Illustrator 21.1.0, SVG Export Plug-In . SVG Version: 6.00 Build 0)  -->
<svg version="1.1" id="Layer_1" xmlns="http://www.w3.org/2000/svg" xmlns:xlink="http://www.w3.org/1999/xlink" x="0px" y="0px"
	 viewBox="0 0 52.9 89.7" style="enable-background:new 0 0 52.9 89.7;" xml:space="preserve">
<style type="text/css">
	.st0{fill:none;stroke:#07354B;stroke-width:2;stroke-linejoin:round;}
</style>
<title>Asset 3</title>
<g id="Layer_2">
	<g id="Layer_2-2">
		<path class="st0" d="M34.9,67.5H18c0,0-11.3-46.7,8.5-66.5C46.2,20.8,34.9,67.5,34.9,67.5z"/>
		<polyline class="st0" points="32.1,67.5 32.1,71.7 20.8,71.7 20.8,67.5 		"/>
		<path class="st0" d="M21.5,75.2c-0.1,4.9,1.7,9.7,4.9,13.4c3.3-3.7,5-8.5,5-13.4"/>
		<ellipse transform="matrix(0.7071 -0.7071 0.7071 0.7071 -9.9543 26.0401)" class="st0" cx="26.5" cy="25" rx="4" ry="4"/>
		<ellipse transform="matrix(0.7071 -0.7071 0.7071 0.7071 -18.9564 29.7701)" class="st0" cx="26.5" cy="37.8" rx="4" ry="4"/>
		<ellipse transform="matrix(0.7071 -0.7071 0.7071 0.7071 -27.9584 33.5001)" class="st0" cx="26.5" cy="50.5" rx="4" ry="4"/>
		<polyline class="st0" points="37.1,24.3 51.9,63.2 44.8,70.3 39.2,64.6 		"/>
		<polyline class="st0" points="15.9,24.3 1,63.2 8.1,70.3 13.7,64.6 		"/>
		<path class="st0" d="M32.1,9.5c-3.1,3.1-8.2,3.1-11.3,0"/>
	</g>
</g>
</svg>
