<?xml version="1.0" encoding="utf-8"?>
<!-- Generator: Adobe Illustrator 21.1.0, SVG Export Plug-In . SVG Version: 6.00 Build 0)  -->
<svg version="1.1" id="Layer_1" xmlns="http://www.w3.org/2000/svg" xmlns:xlink="http://www.w3.org/1999/xlink" x="0px" y="0px"
	 viewBox="0 0 64 64" style="enable-background:new 0 0 64 64;" xml:space="preserve">
<style type="text/css">
	.st0{fill:none;stroke:#07354B;stroke-width:2;stroke-miterlimit:10;}
	.st1{fill:none;stroke:#07354B;stroke-width:2;stroke-linejoin:round;}
</style>
<title>Asset 13</title>
<g id="Layer_2">
	<g id="Layer_2-2">
		<polygon class="st0" points="59,63 5,63 1,59 1,57 25,57 27,59 37,59 39,57 63,57 63,59 		"/>
		<path class="st0" d="M16,19H8c-1.7,0-3,1.3-3,3v32"/>
		<path class="st0" d="M59,54V22c0-1.7-1.3-3-3-3h-8"/>
		<line class="st0" x1="27" y1="51" x2="29" y2="51"/>
		<line class="st0" x1="23" y1="51" x2="25" y2="51"/>
		<line class="st0" x1="31" y1="51" x2="33" y2="51"/>
		<line class="st0" x1="35" y1="51" x2="37" y2="51"/>
		<line class="st0" x1="39" y1="51" x2="41" y2="51"/>
		<path class="st1" d="M45,14c0,7.2-13,23-13,23S19,21.2,19,14c0-7.2,5.8-13,13-13S45,6.8,45,14z"/>
		<circle class="st0" cx="32" cy="14" r="9"/>
		<polyline class="st0" points="17,28 17,23 9,23 9,51 21,51 		"/>
		<polyline class="st0" points="47,36 47,43 9,43 		"/>
		<polyline class="st0" points="43,29 47,29 47,23 55,23 55,51 43,51 		"/>
		<line class="st0" x1="9" y1="35" x2="26" y2="35"/>
	</g>
</g>
</svg>
