<?xml version="1.0" encoding="utf-8"?>
<!-- Generator: Adobe Illustrator 21.1.0, SVG Export Plug-In . SVG Version: 6.00 Build 0)  -->
<svg version="1.1" id="Layer_1" xmlns="http://www.w3.org/2000/svg" xmlns:xlink="http://www.w3.org/1999/xlink" x="0px" y="0px"
	 viewBox="0 0 64 64" style="enable-background:new 0 0 64 64;" xml:space="preserve">
<style type="text/css">
	.st0{fill:none;stroke:#07354B;stroke-width:2;stroke-miterlimit:10;}
</style>
<title>Asset 17</title>
<g id="Layer_2">
	<g id="Layer_2-2">
		<line class="st0" x1="30" y1="1" x2="30" y2="14"/>
		<path class="st0" d="M30,34c4,6,14-1,14-14c0-4-2-7-4-8c-5.2-2.6-8,2-10,2s-4.8-4.6-10-2c-2,1-4,4-4,8C16,33,26,40,30,34z"/>
		<path class="st0" d="M36,7c-2,2-6,2-6,2s0-4,2-6s6-2,6-2S38,5.1,36,7z"/>
		<line class="st0" x1="32" y1="20" x2="32" y2="26"/>
		<line class="st0" x1="28" y1="20" x2="28" y2="26"/>
		<path class="st0" d="M54,47c-2.8,0-5-2.2-5-5s2.2-5,5-5H12c-2.8,0-5,2.2-5,5s2.2,5,5,5H54z"/>
		<rect x="5" y="47" class="st0" width="52" height="6"/>
		<rect x="1" y="53" class="st0" width="62" height="10"/>
		<line class="st0" x1="13" y1="47" x2="13" y2="53"/>
		<line class="st0" x1="15" y1="53" x2="15" y2="63"/>
		<line class="st0" x1="17" y1="47" x2="17" y2="53"/>
		<line class="st0" x1="21" y1="47" x2="21" y2="53"/>
		<line class="st0" x1="58" y1="58" x2="56" y2="58"/>
		<line class="st0" x1="54" y1="58" x2="52" y2="58"/>
		<line class="st0" x1="50" y1="58" x2="48" y2="58"/>
		<circle class="st0" cx="8" cy="58" r="1"/>
	</g>
</g>
</svg>
