<?xml version="1.0" encoding="utf-8"?>
<!-- Generator: Adobe Illustrator 22.0.1, SVG Export Plug-In . SVG Version: 6.00 Build 0)  -->
<svg version="1.1" id="Layer_1" xmlns="http://www.w3.org/2000/svg" xmlns:xlink="http://www.w3.org/1999/xlink" x="0px" y="0px"
	 viewBox="0 0 64 64" style="enable-background:new 0 0 64 64;" xml:space="preserve">
<style type="text/css">
	.st0{fill:none;stroke:#000000;stroke-width:2;stroke-linejoin:round;}
</style>
<title>Group 49</title>
<desc>Created with Sketch.</desc>
<g id="Visuals-_x2B_-Illustrations">
	<g id="Artboard-4" transform="translate(-663.000000, -1722.000000)">
		<g id="Group-49" transform="translate(664.264763, 1723.061683)">
			<path id="Stroke-674" class="st0" d="M55.7,59.9c0,1.1-0.9,2-2,2h-42c-1.1,0-2-0.9-2-2v-14c0-1.1,0.9-2,2-2h42c1.1,0,2,0.9,2,2v4
				h6l-6,6V59.9z"/>
			<path id="Stroke-675" class="st0" d="M31.7,52.9h2"/>
			<path id="Stroke-676" class="st0" d="M35.7,52.9h2"/>
			<path id="Stroke-677" class="st0" d="M27.7,52.9h2"/>
			<path id="Stroke-678" class="st0" d="M55.7,15.9c0,1.1-0.9,2-2,2h-42c-1.1,0-2-0.9-2-2v-14c0-1.1,0.9-2,2-2h42c1.1,0,2,0.9,2,2v4
				h6l-6,6V15.9z"/>
			<path id="Stroke-679" class="st0" d="M14.7,6.9h10"/>
			<path id="Stroke-680" class="st0" d="M26.7,6.9h18"/>
			<path id="Stroke-681" class="st0" d="M14.7,10.9h20"/>
			<path id="Stroke-682" class="st0" d="M5.7,37.9c0,1.1,0.9,2,2,2h42c1.1,0,2-0.9,2-2v-14c0-1.1-0.9-2-2-2h-42c-1.1,0-2,0.9-2,2v4
				h-6l6,6V37.9z"/>
			<path id="Stroke-683" class="st0" d="M10.7,28.9h21"/>
			<path id="Stroke-684" class="st0" d="M10.7,32.9h11"/>
			<path id="Stroke-685" class="st0" d="M23.7,32.9h18"/>
		</g>
	</g>
</g>
</svg>
