<?xml version="1.0" encoding="utf-8"?>
<!-- Generator: Adobe Illustrator 21.1.0, SVG Export Plug-In . SVG Version: 6.00 Build 0)  -->
<svg version="1.1" id="Layer_1" xmlns="http://www.w3.org/2000/svg" xmlns:xlink="http://www.w3.org/1999/xlink" x="0px" y="0px"
	 viewBox="0 0 50 64" style="enable-background:new 0 0 50 64;" xml:space="preserve">
<style type="text/css">
	.st0{fill:none;stroke:#07354B;stroke-width:2;stroke-linejoin:round;}
</style>
<title>Asset 6</title>
<g id="Layer_2">
	<g id="Layer_2-2">
		<line class="st0" x1="25" y1="36" x2="25" y2="52"/>
		<polyline class="st0" points="15,46 15,36 11,36 20,23 29,36 20,36 		"/>
		<line class="st0" x1="15" y1="58" x2="15" y2="64"/>
		<polyline class="st0" points="5,64 5,58 1,58 10,45 19,58 10,58 		"/>
		<line class="st0" x1="45" y1="45" x2="45" y2="64"/>
		<polyline class="st0" points="35,64 35,45 31,45 40,32 49,45 40,45 		"/>
		<line class="st0" x1="35" y1="14" x2="35" y2="33"/>
		<polyline class="st0" points="25,24 25,14 21,14 30,1 39,14 30,14 		"/>
		<line class="st0" x1="25" y1="64" x2="25" y2="62"/>
		<line class="st0" x1="25" y1="60" x2="25" y2="58"/>
		<line class="st0" x1="25" y1="56" x2="25" y2="54"/>
		<line class="st0" x1="6.5" y1="42.6" x2="6.5" y2="23.6"/>
		<line class="st0" x1="44.7" y1="21.9" x2="44.7" y2="30.9"/>
		<line class="st0" x1="44.7" y1="17.9" x2="44.7" y2="19.9"/>
		<line class="st0" x1="6.5" y1="20.8" x2="6.5" y2="18.8"/>
	</g>
</g>
</svg>
