<?xml version="1.0" encoding="utf-8"?>
<!-- Generator: Adobe Illustrator 21.1.0, SVG Export Plug-In . SVG Version: 6.00 Build 0)  -->
<svg version="1.1" id="Layer_1" xmlns="http://www.w3.org/2000/svg" xmlns:xlink="http://www.w3.org/1999/xlink" x="0px" y="0px"
	 viewBox="0 0 64 64" style="enable-background:new 0 0 64 64;" xml:space="preserve">
<style type="text/css">
	.st0{fill:none;stroke:#07354B;stroke-width:2;stroke-miterlimit:10;}
	.st1{fill:none;stroke:#07354B;stroke-width:2;stroke-linejoin:round;}
</style>
<title>Asset 26</title>
<g id="Layer_2">
	<g id="Layer_2-2">
		<path class="st0" d="M8,36l-7,4v2c0,1.7,1,3,2,3h3"/>
		<polyline class="st0" points="29,36 21,40 21,40 14,36 		"/>
		<polyline class="st0" points="50,36 43,40 43,40 35,36 		"/>
		<path class="st0" d="M58,45h3c1,0,2-1.3,2-3v-2l-7-4"/>
		<path class="st0" d="M16,30.5c0,3.5-2,6.5-5,6.5s-5-3-5-6.5S7,25,11,25S16,27,16,30.5z"/>
		<path class="st0" d="M37,30.5c0,3.5-2,6.5-5,6.5s-5-3-5-6.5s1-5.5,5-5.5S37,27,37,30.5z"/>
		<path class="st0" d="M58,30.5c0,3.5-2,6.5-5,6.5s-5-3-5-6.5s1-5.5,5-5.5S58,27,58,30.5z"/>
		<line class="st0" x1="21" y1="40" x2="21" y2="43"/>
		<line class="st0" x1="43" y1="40" x2="43" y2="43"/>
		<path class="st0" d="M37,6.5c0,3.5-2,6.5-5,6.5s-5-3-5-6.5S28,1,32,1S37,3,37,6.5z"/>
		<path class="st0" d="M35,12l7,4v2c0,1.7-1,3-2,3H24c-1,0-2-1.3-2-3v-2l7-4"/>
		<line class="st0" x1="11" y1="20" x2="11" y2="5"/>
		<polyline class="st1" points="16,10 11,5 6,10 		"/>
		<line class="st0" x1="53" y1="20" x2="53" y2="5"/>
		<polyline class="st1" points="58,10 53,5 48,10 		"/>
		<path class="st0" d="M56,54l7,4v2c0,1.7-1,3-2,3H3c-1,0-2-1.3-2-3v-2l7-4"/>
		<polyline class="st0" points="35,54 43,58 43,58 50,54 		"/>
		<polyline class="st0" points="14,54 21,58 21,58 29,54 		"/>
		<path class="st0" d="M16,48.5c0,3.5-2,6.5-5,6.5s-5-3-5-6.5S7,43,11,43S16,45,16,48.5z"/>
		<path class="st0" d="M37,48.5c0,3.5-2,6.5-5,6.5s-5-3-5-6.5s1-5.5,5-5.5S37,45,37,48.5z"/>
		<path class="st0" d="M58,48.5c0,3.5-2,6.5-5,6.5s-5-3-5-6.5s1-5.5,5-5.5S58,45,58,48.5z"/>
		<line class="st0" x1="21" y1="58" x2="21" y2="61"/>
		<line class="st0" x1="43" y1="58" x2="43" y2="61"/>
	</g>
</g>
</svg>
