<?xml version="1.0" encoding="utf-8"?>
<!-- Generator: Adobe Illustrator 21.1.0, SVG Export Plug-In . SVG Version: 6.00 Build 0)  -->
<svg version="1.1" id="Layer_1" xmlns="http://www.w3.org/2000/svg" xmlns:xlink="http://www.w3.org/1999/xlink" x="0px" y="0px"
	 viewBox="0 0 64 56" style="enable-background:new 0 0 64 56;" xml:space="preserve">
<style type="text/css">
	.st0{fill:none;stroke:#07354B;stroke-width:2;stroke-miterlimit:10;}
	.st1{fill:none;stroke:#07354B;stroke-width:2;stroke-linecap:round;stroke-miterlimit:10;}
</style>
<title>Asset 7</title>
<g id="Layer_2">
	<g id="Layer_2-2">
		<path class="st0" d="M55,10V4c0-1.7-1.3-3-3-3H4C2.3,1,1,2.3,1,4v38c0,1.7,1.3,3,3,3h32"/>
		<line class="st0" x1="33" y1="45" x2="33" y2="55"/>
		<line class="st0" x1="23" y1="55" x2="23" y2="45"/>
		<line class="st0" x1="20" y1="55" x2="36" y2="55"/>
		<line class="st0" x1="1" y1="37" x2="36" y2="37"/>
		<line class="st0" x1="27" y1="41" x2="29" y2="41"/>
		<path class="st0" d="M39,18v-3c0-1.1,0.9-2,2-2h20c1.1,0,2,0.9,2,2v38c0,1.1-0.9,2-2,2H41c-1.1,0-2-0.9-2-2V28"/>
		<line class="st0" x1="53" y1="51" x2="49" y2="51"/>
		<line class="st0" x1="54" y1="25" x2="32" y2="25"/>
		<line class="st0" x1="44" y1="21" x2="25" y2="21"/>
		<polyline class="st1" points="28,24 25,21 28,18 		"/>
		<line class="st1" x1="54" y1="25" x2="51" y2="22"/>
		<line class="st1" x1="54" y1="25" x2="51" y2="28"/>
		<line class="st0" x1="39" y1="47" x2="63" y2="47"/>
		<polyline class="st0" points="5,34 5,5 52,5 		"/>
		<line class="st0" x1="8" y1="13" x2="10" y2="13"/>
		<line class="st0" x1="12" y1="13" x2="14" y2="13"/>
		<line class="st0" x1="16" y1="13" x2="18" y2="13"/>
		<line class="st0" x1="8" y1="17" x2="10" y2="17"/>
		<line class="st0" x1="12" y1="17" x2="14" y2="17"/>
		<line class="st0" x1="16" y1="17" x2="18" y2="17"/>
		<line class="st0" x1="8" y1="21" x2="10" y2="21"/>
		<line class="st0" x1="12" y1="21" x2="14" y2="21"/>
		<line class="st0" x1="20" y1="13" x2="22" y2="13"/>
		<line class="st0" x1="8" y1="9" x2="10" y2="9"/>
		<line class="st0" x1="12" y1="9" x2="14" y2="9"/>
		<line class="st0" x1="16" y1="9" x2="18" y2="9"/>
		<line class="st0" x1="20" y1="9" x2="22" y2="9"/>
		<line class="st0" x1="24" y1="13" x2="26" y2="13"/>
		<line class="st0" x1="24" y1="9" x2="26" y2="9"/>
		<line class="st0" x1="54" y1="39" x2="56" y2="39"/>
		<line class="st0" x1="58" y1="39" x2="60" y2="39"/>
		<line class="st0" x1="54" y1="35" x2="56" y2="35"/>
		<line class="st0" x1="58" y1="35" x2="60" y2="35"/>
		<line class="st0" x1="50" y1="35" x2="52" y2="35"/>
		<line class="st0" x1="42" y1="39" x2="44" y2="39"/>
		<line class="st0" x1="46" y1="39" x2="48" y2="39"/>
		<line class="st0" x1="50" y1="39" x2="52" y2="39"/>
		<line class="st0" x1="54" y1="43" x2="56" y2="43"/>
		<line class="st0" x1="58" y1="43" x2="60" y2="43"/>
		<line class="st0" x1="42" y1="43" x2="44" y2="43"/>
		<line class="st0" x1="46" y1="43" x2="48" y2="43"/>
		<line class="st0" x1="50" y1="43" x2="52" y2="43"/>
	</g>
</g>
</svg>
