<?xml version="1.0" encoding="utf-8"?>
<!-- Generator: Adobe Illustrator 21.1.0, SVG Export Plug-In . SVG Version: 6.00 Build 0)  -->
<svg version="1.1" id="Layer_1" xmlns="http://www.w3.org/2000/svg" xmlns:xlink="http://www.w3.org/1999/xlink" x="0px" y="0px"
	 viewBox="0 0 52 64" style="enable-background:new 0 0 52 64;" xml:space="preserve">
<style type="text/css">
	.st0{fill:none;stroke:#FFFFFF;stroke-width:2;stroke-miterlimit:10;}
</style>
<title>Asset 15</title>
<g id="Layer_2">
	<g id="Layer_2-2">
		<line class="st0" x1="21" y1="64" x2="21" y2="55"/>
		<line class="st0" x1="31" y1="55" x2="31" y2="64"/>
		<path class="st0" d="M34,50v4c0,0.6-0.4,1-1,1H19c-0.6,0-1-0.4-1-1v-4"/>
		<circle class="st0" cx="26" cy="26" r="25"/>
		<path class="st0" d="M31,20.5c0,3.5-2,6.5-5,6.5s-5-3-5-6.5s1-5.5,5-5.5S31,17,31,20.5z"/>
		<path class="st0" d="M29,26l7,4v2c0,1.7-1,3-2,3H18c-1,0-2-1.3-2-3v-2l7-4"/>
		<line class="st0" x1="26" y1="58" x2="26" y2="64"/>
		<circle class="st0" cx="26" cy="26" r="21"/>
		<path class="st0" d="M10,26c0-8.8,7.2-16,16-16"/>
	</g>
</g>
</svg>
