<?xml version="1.0" encoding="utf-8"?>
<!-- Generator: Adobe Illustrator 21.1.0, SVG Export Plug-In . SVG Version: 6.00 Build 0)  -->
<svg version="1.1" id="Layer_1" xmlns="http://www.w3.org/2000/svg" xmlns:xlink="http://www.w3.org/1999/xlink" x="0px" y="0px"
	 viewBox="0 0 64 52" style="enable-background:new 0 0 64 52;" xml:space="preserve">
<style type="text/css">
	.st0{fill:none;stroke:#07354B;stroke-width:2;stroke-linejoin:round;}
</style>
<title>Asset 4</title>
<g id="Layer_2">
	<g id="Layer_2-2">
		<path class="st0" d="M9,26c-2.7-3.1-4-5.9-4-10C5,7.7,11.7,1,20,1c4.9,0,9,3,12,6l2,2l2-2c3-3,7.1-6,12-6c8.3,0,15,6.7,15,15
			c0,4.9-2,8-6,12L34,51L15,32"/>
		<polyline class="st0" points="4,32 10,32 18,18 26,30 34,18 42,30 50,16 56,16 		"/>
		<line class="st0" x1="0" y1="32" x2="2" y2="32"/>
		<line class="st0" x1="58" y1="16" x2="60" y2="16"/>
		<path class="st0" d="M11,16c0-5,4-9,9-9"/>
	</g>
</g>
</svg>
