<?xml version="1.0" encoding="utf-8"?>
<!-- Generator: Adobe Illustrator 21.1.0, SVG Export Plug-In . SVG Version: 6.00 Build 0)  -->
<svg version="1.1" id="Layer_1" xmlns="http://www.w3.org/2000/svg" xmlns:xlink="http://www.w3.org/1999/xlink" x="0px" y="0px"
	 viewBox="0 0 54 64" style="enable-background:new 0 0 54 64;" xml:space="preserve">
<style type="text/css">
	.st0{fill:none;stroke:#07354B;stroke-width:2;stroke-linejoin:round;}
</style>
<title>Asset 23</title>
<g id="Layer_2">
	<g id="Layer_2-2">
		<path class="st0" d="M43,4c2.2,0,4,1.8,4,4v7c0,10.5-16,19-16,19s-16-8.5-16-19V8c0-2.2,1.8-4,4-4"/>
		<circle class="st0" cx="22" cy="4" r="3"/>
		<circle class="st0" cx="40" cy="4" r="3"/>
		<line class="st0" x1="31" y1="34" x2="31" y2="41"/>
		<path class="st0" d="M31,44v8c0,6.1,4.9,11,11,11s11-4.9,11-11s-4.9-11-11-11H13"/>
		<path class="st0" d="M44,23c0,0-4.2,3-13,3s-13-3-13-3"/>
		<path class="st0" d="M49,52c0,3.9-3.1,7-7,7s-7-3.1-7-7s3.1-7,7-7"/>
		<circle class="st0" cx="7" cy="41" r="6"/>
		<circle class="st0" cx="7" cy="41" r="1"/>
	</g>
</g>
</svg>
