<?xml version="1.0" encoding="utf-8"?>
<!-- Generator: Adobe Illustrator 21.1.0, SVG Export Plug-In . SVG Version: 6.00 Build 0)  -->
<svg version="1.1" id="Layer_1" xmlns="http://www.w3.org/2000/svg" xmlns:xlink="http://www.w3.org/1999/xlink" x="0px" y="0px"
	 viewBox="0 0 64 64" style="enable-background:new 0 0 64 64;" xml:space="preserve">
<style type="text/css">
	.st0{fill:none;stroke:#07354B;stroke-width:2;stroke-linejoin:round;}
</style>
<title>Asset 28</title>
<g id="Layer_2">
	<g id="Layer_2-2">
		<polyline class="st0" points="1,64 1,59 21,59 21,64 		"/>
		<polyline class="st0" points="21,56 21,53 41,53 41,64 		"/>
		<polyline class="st0" points="41,50 41,47 63,47 63,64 		"/>
		<circle class="st0" cx="29" cy="5" r="4"/>
		<polyline class="st0" points="24,15 16,17 10,23 7,20 14,13 25,10 		"/>
		<polyline class="st0" points="25,30 33,32 39,42 43,40 38,29 28,24 30,17 39,16 46,9 43,6 37,12 30,12 		"/>
		<polyline class="st0" points="26,28 23,38 12,47 9,44 17,36 20,27 21,15.7 		"/>
	</g>
</g>
</svg>
