<?xml version="1.0" encoding="utf-8"?>
<!-- Generator: Adobe Illustrator 21.1.0, SVG Export Plug-In . SVG Version: 6.00 Build 0)  -->
<svg version="1.1" id="Layer_1" xmlns="http://www.w3.org/2000/svg" xmlns:xlink="http://www.w3.org/1999/xlink" x="0px" y="0px"
	 viewBox="0 0 64 64" style="enable-background:new 0 0 64 64;" xml:space="preserve">
<style type="text/css">
	.st0{fill:none;stroke:#07354B;stroke-width:2;stroke-miterlimit:10;}
	.st1{fill:none;stroke:#07354B;stroke-width:2;stroke-linejoin:round;}
</style>
<title>Asset 18</title>
<g id="Layer_2">
	<g id="Layer_2-2">
		<line class="st0" x1="32" y1="39" x2="32" y2="9"/>
		<line class="st0" x1="32" y1="63" x2="32" y2="43"/>
		<circle class="st0" cx="32" cy="5" r="4"/>
		<path class="st0" d="M32,53c2,1,5,2.2,5,5c0,2.8-2.2,5-5,5s-5-2.2-5-5c0-1.1,0.4-2.1,1-3"/>
		<path class="st0" d="M32,53c-2-1-7-3-7-7c0-2.5,2-3.8,4-5"/>
		<path class="st0" d="M36,51c1.9-0.9,3.1-2.9,3-5c0-3.9-5-6-7-7"/>
		<path class="st0" d="M35,25c2,0,5,2,5,6c0,4.4-6,7-8,8c-2-1-8-3.6-8-8c0-4,3-6,5-6"/>
		<path class="st1" d="M29,21h-4C11,21,3,16,1,10c14,0,14-5,19-5c2.2,0.1,3.9,1.8,4,4v3c0,1.7,1.3,3,3,3h2"/>
		<line class="st0" x1="22" y1="21" x2="22" y2="17"/>
		<line class="st0" x1="18" y1="21" x2="18" y2="16"/>
		<line class="st0" x1="14" y1="20" x2="14" y2="15"/>
		<line class="st0" x1="10" y1="18" x2="10" y2="14"/>
		<path class="st1" d="M35,21h4c14,0,22-5,24-11c-14,0-14-5-19-5c-2.2,0.1-3.9,1.8-4,4v3c0,1.7-1.3,3-3,3h-2"/>
		<line class="st0" x1="42" y1="21" x2="42" y2="17"/>
		<line class="st0" x1="46" y1="21" x2="46" y2="16"/>
		<line class="st0" x1="50" y1="20" x2="50" y2="15"/>
		<line class="st0" x1="54" y1="18" x2="54" y2="14"/>
	</g>
</g>
</svg>
