<?xml version="1.0" encoding="utf-8"?>
<!-- Generator: Adobe Illustrator 21.1.0, SVG Export Plug-In . SVG Version: 6.00 Build 0)  -->
<svg version="1.1" id="Layer_1" xmlns="http://www.w3.org/2000/svg" xmlns:xlink="http://www.w3.org/1999/xlink" x="0px" y="0px"
	 viewBox="0 0 64 52" style="enable-background:new 0 0 64 52;" xml:space="preserve">
<style type="text/css">
	.st0{fill:none;stroke:#07354B;stroke-width:2;stroke-miterlimit:10;}
	.st1{fill:none;stroke:#07354B;stroke-width:2;stroke-linejoin:round;}
	.st2{fill:none;stroke:#07354B;stroke-width:2;stroke-linecap:square;stroke-linejoin:round;}
</style>
<title>Asset 9</title>
<g id="Layer_2">
	<g id="Layer_2-2">
		<path class="st0" d="M60,17c0,3.9-3.1,7-7,7H11c-3.9,0-7-3.1-7-7"/>
		<polyline class="st0" points="60,42 60,51 4,51 4,42 		"/>
		<polyline class="st0" points="4,30 4,9 60,9 60,30 		"/>
		<polyline class="st1" points="40,9 40,1 24,1 24,9 		"/>
		<line class="st0" x1="31" y1="18" x2="33" y2="18"/>
		<line class="st0" x1="35" y1="18" x2="37" y2="18"/>
		<line class="st0" x1="27" y1="18" x2="29" y2="18"/>
		<line class="st0" x1="24" y1="5" x2="40" y2="5"/>
		<line class="st0" x1="12" y1="39" x2="58" y2="39"/>
		<line class="st0" x1="58" y1="33" x2="12" y2="33"/>
		<rect x="58" y="33" class="st0" width="5" height="6"/>
		<polygon class="st2" points="12,33 6,33 1,36 6,39 12,39 		"/>
		<line class="st0" x1="28" y1="39" x2="28" y2="33"/>
		<polyline class="st0" points="38,43 52,43 52,39 		"/>
	</g>
</g>
</svg>
