<?xml version="1.0" encoding="utf-8"?>
<!-- Generator: Adobe Illustrator 21.1.0, SVG Export Plug-In . SVG Version: 6.00 Build 0)  -->
<svg version="1.1" id="Layer_1" xmlns="http://www.w3.org/2000/svg" xmlns:xlink="http://www.w3.org/1999/xlink" x="0px" y="0px"
	 viewBox="0 0 64 60" style="enable-background:new 0 0 64 60;" xml:space="preserve">
<style type="text/css">
	.st0{fill:none;stroke:#07354B;stroke-width:2;stroke-miterlimit:10;}
</style>
<title>Asset 5</title>
<g id="Layer_2">
	<g id="Layer_2-2">
		<path class="st0" d="M48,40"/>
		<path class="st0" d="M19,60v-7c0-10,7-9,14-13"/>
		<path class="st0" d="M49,40c7,4,14,3,14,13v7"/>
		<polygon class="st0" points="45,44 41,42 37,44 33,40 35,37 41,38 47,37 49,40 		"/>
		<line class="st0" x1="46" y1="33" x2="46" y2="37"/>
		<line class="st0" x1="36" y1="37" x2="36" y2="33"/>
		<line class="st0" x1="40" y1="51" x2="42" y2="51"/>
		<line class="st0" x1="40" y1="47" x2="42" y2="47"/>
		<path class="st0" d="M50,20c0-6.1-2.9-9-9-9s-9,2.9-9,9v4c1,7,4,9,4,9c3.2,1.3,6.8,1.3,10,0c0,0,3-2,4-9V20z"/>
		<polyline class="st0" points="32,20 36,18 41,20 46,22 50,20 		"/>
		<path class="st0" d="M22,41h-1C10,41,1,32,1,21S10,1,21,1c5.8,0,11.3,2.6,15,7"/>
		<line class="st0" x1="27" y1="60" x2="27" y2="54"/>
		<line class="st0" x1="55" y1="60" x2="55" y2="54"/>
		<line class="st0" x1="20" y1="30.8" x2="20" y2="33.7"/>
		<path class="st0" d="M14.2,15c-0.1-3.2,2.3-5.9,5.5-6s5.9,2.3,6,5.5c0,0.2,0,0.3,0,0.5c0,5.8-5.8,4.3-5.8,10.1V28"/>
	</g>
</g>
</svg>
