<?xml version="1.0" encoding="utf-8"?>
<!-- Generator: Adobe Illustrator 21.1.0, SVG Export Plug-In . SVG Version: 6.00 Build 0)  -->
<svg version="1.1" id="Layer_1" xmlns="http://www.w3.org/2000/svg" xmlns:xlink="http://www.w3.org/1999/xlink" x="0px" y="0px"
	 viewBox="0 0 64 64" style="enable-background:new 0 0 64 64;" xml:space="preserve">
<style type="text/css">
	.st0{fill:none;stroke:#07354B;stroke-width:2;stroke-linejoin:round;}
	.st1{fill:none;stroke:#07354B;stroke-width:2;stroke-miterlimit:10;}
</style>
<title>Asset 29</title>
<g id="Layer_2">
	<g id="Layer_2-2">
		<polyline class="st0" points="8,26 12,30 16,26 		"/>
		<path class="st0" d="M38,11H19c-3.9,0-7,3.1-7,7v12"/>
		<polyline class="st0" points="56,36 52,32 48,36 		"/>
		<path class="st0" d="M26,51h19c3.9,0,7-3.1,7-7V32"/>
		<path class="st1" d="M27,26.5c0,3.5,2,6.5,5,6.5s5-3,5-6.5S36,21,32,21S27,23,27,26.5z"/>
		<path class="st1" d="M29,32l-7,4v2c0,1.7,1,3,2,3h16c1,0,2-1.3,2-3v-2l-7-4"/>
		<path class="st1" d="M6,48.5C6,52,8,55,11,55s5-3,5-6.5S15,43,11,43S6,45,6,48.5z"/>
		<path class="st1" d="M8,54l-7,4v2c0,1.7,1,3,2,3h16c1,0,2-1.3,2-3v-2l-7-4"/>
		<path class="st1" d="M48,6.5c0,3.5,2,6.5,5,6.5s5-3,5-6.5S57,1,53,1S48,3,48,6.5z"/>
		<path class="st1" d="M50,12l-7,4v2c0,1.7,1,3,2,3h16c1,0,2-1.3,2-3v-2l-7-4"/>
	</g>
</g>
</svg>
