<?xml version="1.0" encoding="utf-8"?>
<!-- Generator: Adobe Illustrator 21.1.0, SVG Export Plug-In . SVG Version: 6.00 Build 0)  -->
<svg version="1.1" id="Layer_1" xmlns="http://www.w3.org/2000/svg" xmlns:xlink="http://www.w3.org/1999/xlink" x="0px" y="0px"
	 viewBox="0 0 64 64" style="enable-background:new 0 0 64 64;" xml:space="preserve">
<style type="text/css">
	.st0{fill:none;stroke:#07354B;stroke-width:2;stroke-linejoin:round;}
	.st1{fill:none;stroke:#07354B;stroke-width:2;stroke-miterlimit:10;}
</style>
<title>Asset 20</title>
<g id="Layer_2">
	<g id="Layer_2-2">
		<line class="st0" x1="12" y1="64" x2="12" y2="41"/>
		<circle class="st0" cx="12" cy="6" r="5"/>
		<path class="st0" d="M5,64V38H1V22c0-3.9,3.1-7,7-7h8c3.9,0,7,3.1,7,7v16h-4v26"/>
		<line class="st0" x1="12" y1="18" x2="12" y2="20"/>
		<line class="st0" x1="12" y1="22" x2="12" y2="24"/>
		<polyline class="st0" points="20,6 63,6 63,42 		"/>
		<path class="st1" d="M32,29h-3c-0.6,0-1-0.4-1-1v-6c0-0.6,0.4-1,1-1h3"/>
		<line class="st1" x1="28" y1="25" x2="32" y2="25"/>
		<path class="st1" d="M57,29h-3c-0.6,0-1-0.4-1-1v-6c0-0.6,0.4-1,1-1h3"/>
		<path class="st1" d="M41,30v-8c0-0.6,0.4-1,1-1h6c0.6,0,1,0.4,1,1v8"/>
		<line class="st1" x1="45" y1="21" x2="45" y2="30"/>
		<line class="st1" x1="34" y1="23" x2="38" y2="23"/>
		<line class="st1" x1="34" y1="27" x2="38" y2="27"/>
		<line class="st1" x1="59" y1="18" x2="57" y2="18"/>
		<polyline class="st0" points="22,42 63,42 63,46 22,46 		"/>
	</g>
</g>
</svg>
