<?xml version="1.0" encoding="utf-8"?>
<!-- Generator: Adobe Illustrator 21.1.0, SVG Export Plug-In . SVG Version: 6.00 Build 0)  -->
<svg version="1.1" id="Layer_1" xmlns="http://www.w3.org/2000/svg" xmlns:xlink="http://www.w3.org/1999/xlink" x="0px" y="0px"
	 viewBox="0 0 64 60" style="enable-background:new 0 0 64 60;" xml:space="preserve">
<style type="text/css">
	.st0{fill:none;stroke:#07354B;stroke-width:2;stroke-miterlimit:10;}
</style>
<title>Asset 27</title>
<g id="Layer_2">
	<g id="Layer_2-2">
		<path class="st0" d="M21,37"/>
		<path class="st0" d="M13,37h9l11,4h9c1.7,0,3,1.3,3,3s-1.3,3-3,3H31c-1.7,0-3,1.3-3,3"/>
		<path class="st0" d="M44,46l16-5c1.7,0,3,1.3,3,3c-0.1,0.8-0.5,1.5-1,2L37,59h-2l-17-6h-5"/>
		<line class="st0" x1="10" y1="51" x2="8" y2="51"/>
		<line class="st0" x1="6" y1="51" x2="4" y2="51"/>
		<path class="st0" d="M0,35h12c0.6,0,1,0.4,1,1v18c0,0.6-0.4,1-1,1H0"/>
		<path class="st0" d="M36,33c0,0,18-12,18-23c0-5-4-9-9-9c-5,0-9,4-9,7c0-3-4-7-9-7c-5,0-9,4-9,9C18,21,36,33,36,33z"/>
	</g>
</g>
</svg>
