<?xml version="1.0" encoding="utf-8"?>
<!-- Generator: Adobe Illustrator 21.1.0, SVG Export Plug-In . SVG Version: 6.00 Build 0)  -->
<svg version="1.1" id="Layer_1" xmlns="http://www.w3.org/2000/svg" xmlns:xlink="http://www.w3.org/1999/xlink" x="0px" y="0px"
	 viewBox="0 0 60 64" style="enable-background:new 0 0 60 64;" xml:space="preserve">
<style type="text/css">
	.st0{fill:none;stroke:#07354B;stroke-width:2;stroke-linejoin:round;}
</style>
<title>Asset 10</title>
<g id="Layer_2">
	<g id="Layer_2-2">
		<polyline class="st0" points="9,49 9,40 14,29 24,19 21,22 15,19 3,22 1,18 11,8 18,5 18,1 33,8 37,15 37,22 33,40 33,49 		"/>
		<line class="st0" x1="16" y1="10" x2="14" y2="10"/>
		<line class="st0" x1="22" y1="45" x2="20" y2="45"/>
		<line class="st0" x1="26" y1="45" x2="24" y2="45"/>
		<line class="st0" x1="18" y1="45" x2="16" y2="45"/>
		<path class="st0" d="M6,53c-1.7,0-3,1.3-3,3v7h36v-7c0-1.7-1.3-3-3-3h-1v-4H7v4H6z"/>
		<path class="st0" d="M42,63h17v-7c0-1.7-1.3-3-3-3h-1v-4H38"/>
		<line class="st0" x1="10" y1="53" x2="32" y2="53"/>
		<line class="st0" x1="40" y1="13" x2="53" y2="13"/>
		<polyline class="st0" points="40,17 52,17 52,22 50,26 50,40 52,44 52,49 		"/>
		<line class="st0" x1="50" y1="13" x2="50" y2="17"/>
		<polyline class="st0" points="34,4 34,1 40,1 40,5 46,5 46,1 52,1 52,13 40,13 		"/>
		<line class="st0" x1="50" y1="40" x2="38" y2="40"/>
	</g>
</g>
</svg>
