<?xml version="1.0" encoding="utf-8"?>
<!-- Generator: Adobe Illustrator 21.1.0, SVG Export Plug-In . SVG Version: 6.00 Build 0)  -->
<svg version="1.1" id="Layer_1" xmlns="http://www.w3.org/2000/svg" xmlns:xlink="http://www.w3.org/1999/xlink" x="0px" y="0px"
	 viewBox="0 0 64 64" style="enable-background:new 0 0 64 64;" xml:space="preserve">
<style type="text/css">
	.st0{fill:#07354B;}
</style>
<title>Asset 1</title>
<g id="Layer_2">
	<g id="Layer_2-2">
		<path class="st0" d="M32,12c-3.3,0-6-2.7-6-6s2.7-6,6-6s6,2.7,6,6S35.3,12,32,12z M32,2c-2.2,0-4,1.8-4,4s1.8,4,4,4s4-1.8,4-4
			S34.2,2,32,2z"/>
		<path class="st0" d="M32,12c-3.3,0-6-2.7-6-6s2.7-6,6-6s6,2.7,6,6S35.3,12,32,12z M32,2c-2.2,0-4,1.8-4,4s1.8,4,4,4s4-1.8,4-4
			S34.2,2,32,2z"/>
		<path class="st0" d="M45,30H19v-8c0-4.4,3.6-8,8-8h10c4.4,0,8,3.6,8,8V30z M21,28h22v-6c0-3.3-2.7-6-6-6H27c-3.3,0-6,2.7-6,6V28z"
			/>
		<rect x="25" y="24" class="st0" width="2" height="5"/>
		<rect x="37" y="24" class="st0" width="2" height="5"/>
		<polygon class="st0" points="64,42 49,42 49,40 62,40 62,6 40,6 40,4 64,4 		"/>
		<polygon class="st0" points="15,42 0,42 0,4 24,4 24,6 2,6 2,40 15,40 		"/>
		<path class="st0" d="M51,36H13v-8h38V36z M15,34h34v-4H15V34z"/>
		<polygon class="st0" points="45,64 43,64 43,36 21,36 21,64 19,64 19,34 45,34 		"/>
		<path class="st0" d="M39,60H25V40h14V60z M27,58h10V42H27V58z"/>
		<rect x="31" y="18" class="st0" width="2" height="2"/>
		<rect x="31" y="22" class="st0" width="2" height="2"/>
	</g>
</g>
</svg>
