<?xml version="1.0" encoding="utf-8"?>
<!-- Generator: Adobe Illustrator 21.1.0, SVG Export Plug-In . SVG Version: 6.00 Build 0)  -->
<svg version="1.1" id="Layer_1" xmlns="http://www.w3.org/2000/svg" xmlns:xlink="http://www.w3.org/1999/xlink" x="0px" y="0px"
	 viewBox="0 0 58 64" style="enable-background:new 0 0 58 64;" xml:space="preserve">
<style type="text/css">
	.st0{fill:none;stroke:#07354B;stroke-width:2;stroke-miterlimit:10;}
</style>
<title>Asset 14</title>
<g id="Layer_2">
	<g id="Layer_2-2">
		<line class="st0" x1="13" y1="40" x2="13" y2="63"/>
		<line class="st0" x1="6" y1="63" x2="6" y2="46"/>
		<circle class="st0" cx="10" cy="9" r="4"/>
		<polyline class="st0" points="11,25 22,25 28,12 		"/>
		<line class="st0" x1="22" y1="63" x2="58" y2="63"/>
		<line class="st0" x1="0" y1="63" x2="20" y2="63"/>
		<path class="st0" d="M24,11l-4,9h-4l-3-3H7c-1.7,0-3,1.3-3,3v26h3l9-9v-9"/>
		<polygon class="st0" points="18,11 22,11 49,15 51,17 57,17 57,1 51,1 49,3 22,7 18,7 		"/>
		<line class="st0" x1="22" y1="7" x2="22" y2="11"/>
		<line class="st0" x1="53" y1="14" x2="53" y2="17"/>
		<line class="st0" x1="53" y1="1" x2="53" y2="12"/>
		<line class="st0" x1="49" y1="3" x2="49" y2="15"/>
		<line class="st0" x1="46" y1="9" x2="44" y2="9"/>
		<line class="st0" x1="42" y1="9" x2="40" y2="9"/>
		<line class="st0" x1="38" y1="9" x2="36" y2="9"/>
		<polyline class="st0" points="27,63 27,51 31,51 31,63 		"/>
		<polyline class="st0" points="35,63 35,47 39,47 39,63 		"/>
		<polyline class="st0" points="43,63 43,41 47,41 47,63 		"/>
		<polyline class="st0" points="51,63 51,39 55,39 55,63 		"/>
		<polyline class="st0" points="57,27 48,36 40,36 30,46 22,46 		"/>
		<polyline class="st0" points="57,33 57,27 51,27 		"/>
	</g>
</g>
</svg>
