<?xml version="1.0" encoding="utf-8"?>
<!-- Generator: Adobe Illustrator 21.1.0, SVG Export Plug-In . SVG Version: 6.00 Build 0)  -->
<svg version="1.1" id="Layer_1" xmlns="http://www.w3.org/2000/svg" xmlns:xlink="http://www.w3.org/1999/xlink" x="0px" y="0px"
	 viewBox="0 0 64 46" style="enable-background:new 0 0 64 46;" xml:space="preserve">
<style type="text/css">
	.st0{fill:none;stroke:#07354B;stroke-width:2;stroke-linecap:round;stroke-linejoin:round;}
	.st1{fill:none;stroke:#07354B;stroke-width:2;stroke-linejoin:round;}
</style>
<title>Asset 12</title>
<g id="Layer_2">
	<g id="Layer_2-2">
		<line class="st0" x1="53" y1="42" x2="5" y2="26"/>
		<line class="st0" x1="5" y1="20" x2="53" y2="4"/>
		<path class="st0" d="M1,20c0-1.1,0.9-2,2-2s2,0.9,2,2v6c0,1.1-0.9,2-2,2s-2-0.9-2-2V20z"/>
		<path class="st1" d="M59,30v12c0,1.7-1.3,3-3,3s-3-1.3-3-3V30"/>
		<path class="st1" d="M53,16V4c0-1.7,1.3-3,3-3s3,1.3,3,3v12"/>
		<polyline class="st1" points="26,33 26,38 12,33 12,28 		"/>
		<line class="st1" x1="35" y1="10" x2="35" y2="36"/>
		<path class="st1" d="M44,21c2.4,0,1.6-2,4-2s1.6,2,4,2s1.6-2,4-2s1.6,2,4,2s1.6-2,4-2"/>
		<path class="st1" d="M40,25c2.4,0,1.6,2,4,2s1.6-2,4-2s1.6,2,4,2s1.6-2,4-2s1.6,2,4,2"/>
	</g>
</g>
</svg>
