<?xml version="1.0" encoding="utf-8"?>
<!-- Generator: Adobe Illustrator 21.1.0, SVG Export Plug-In . SVG Version: 6.00 Build 0)  -->
<svg version="1.1" id="Layer_1" xmlns="http://www.w3.org/2000/svg" xmlns:xlink="http://www.w3.org/1999/xlink" x="0px" y="0px"
	 viewBox="0 0 60 64" style="enable-background:new 0 0 60 64;" xml:space="preserve">
<style type="text/css">
	.st0{fill:none;stroke:#07354B;stroke-width:2;stroke-linejoin:round;}
</style>
<title>Asset 34</title>
<g id="Layer_2">
	<g id="Layer_2-2">
		<polyline class="st0" points="34,5 45,5 45,63 1,63 1,5 12,5 		"/>
		<rect x="12" y="1" class="st0" width="22" height="10"/>
		<polyline class="st0" points="37,9 40,9 40,53 6,53 6,9 9,9 		"/>
		<polyline class="st0" points="30,4 30,7 16,7 16,4 		"/>
		<line class="st0" x1="13.1" y1="17" x2="11" y2="17"/>
		<line class="st0" x1="35" y1="17" x2="15.3" y2="17"/>
		<line class="st0" x1="13.1" y1="21.6" x2="11" y2="21.6"/>
		<line class="st0" x1="35" y1="21.6" x2="15.3" y2="21.6"/>
		<line class="st0" x1="13.1" y1="26.2" x2="11" y2="26.2"/>
		<line class="st0" x1="35" y1="26.2" x2="15.3" y2="26.2"/>
		<line class="st0" x1="13.1" y1="30.7" x2="11" y2="30.7"/>
		<line class="st0" x1="35" y1="30.7" x2="15.3" y2="30.7"/>
		<line class="st0" x1="13.1" y1="35.3" x2="11" y2="35.3"/>
		<line class="st0" x1="35" y1="35.3" x2="15.3" y2="35.3"/>
		<line class="st0" x1="13.1" y1="39.9" x2="11" y2="39.9"/>
		<line class="st0" x1="35" y1="39.9" x2="15.3" y2="39.9"/>
		<line class="st0" x1="13.1" y1="44.5" x2="11" y2="44.5"/>
		<line class="st0" x1="35" y1="44.5" x2="15.3" y2="44.5"/>
		<line class="st0" x1="51" y1="35" x2="59" y2="35"/>
		<line class="st0" x1="51" y1="55" x2="59" y2="55"/>
		<line class="st0" x1="55" y1="40" x2="55" y2="42"/>
		<line class="st0" x1="55" y1="44" x2="55" y2="46"/>
		<line class="st0" x1="55" y1="48" x2="55" y2="50"/>
		<polygon class="st0" points="51,5 59,5 59,55 55,63 51,55 		"/>
		<polyline class="st0" points="53,5 53,1 57,1 57,5 		"/>
		<line class="st0" x1="1" y1="59" x2="45" y2="59"/>
	</g>
</g>
</svg>
