<?xml version="1.0" encoding="utf-8"?>
<!-- Generator: Adobe Illustrator 21.1.0, SVG Export Plug-In . SVG Version: 6.00 Build 0)  -->
<svg version="1.1" id="Layer_1" xmlns="http://www.w3.org/2000/svg" xmlns:xlink="http://www.w3.org/1999/xlink" x="0px" y="0px"
	 viewBox="0 0 56 64" style="enable-background:new 0 0 56 64;" xml:space="preserve">
<style type="text/css">
	.st0{fill:none;stroke:#07354B;stroke-width:2;stroke-linejoin:round;}
	.st1{fill:none;stroke:#07354B;stroke-width:2;stroke-miterlimit:10;}
</style>
<title>Asset 8</title>
<g id="Layer_2">
	<g id="Layer_2-2">
		<line class="st0" x1="28" y1="64" x2="28" y2="43"/>
		<circle class="st0" cx="28" cy="6" r="5"/>
		<path class="st0" d="M39,22v-1c0-3.3-2.7-6-6-6H23c-3.3,0-6,2.7-6,6v1"/>
		<line class="st0" x1="11" y1="64" x2="11" y2="47"/>
		<circle class="st0" cx="11" cy="14" r="4"/>
		<path class="st1" d="M17,64V44h4V27c0-2.8-2.2-5-5-5H6c-2.8,0-5,2.2-5,5v17h4v20"/>
		<line class="st0" x1="45" y1="64" x2="45" y2="47"/>
		<circle class="st0" cx="45" cy="14" r="4"/>
		<path class="st1" d="M51,64V44h4V27c0-2.8-2.2-5-5-5H40c-2.8,0-5,2.2-5,5v17h4v20"/>
		<line class="st0" x1="28" y1="18" x2="28" y2="20"/>
		<line class="st0" x1="28" y1="22" x2="28" y2="24"/>
		<line class="st0" x1="45" y1="25" x2="45" y2="27"/>
		<line class="st0" x1="11" y1="25" x2="11" y2="27"/>
		<line class="st0" x1="21" y1="44" x2="21" y2="64"/>
		<line class="st0" x1="35" y1="44" x2="35" y2="64"/>
	</g>
</g>
</svg>
