<?xml version="1.0" encoding="utf-8"?>
<!-- Generator: Adobe Illustrator 21.1.0, SVG Export Plug-In . SVG Version: 6.00 Build 0)  -->
<svg version="1.1" id="Layer_1" xmlns="http://www.w3.org/2000/svg" xmlns:xlink="http://www.w3.org/1999/xlink" x="0px" y="0px"
	 viewBox="0 0 64 60" style="enable-background:new 0 0 64 60;" xml:space="preserve">
<style type="text/css">
	.st0{fill:none;stroke:#07354B;stroke-width:2;stroke-miterlimit:10;}
</style>
<title>Asset 31</title>
<g id="Layer_2">
	<g id="Layer_2-2">
		<path class="st0" d="M43,11h4c3.3,0,6,2.7,6,6v19"/>
		<path class="st0" d="M21,11h-4c-3.3,0-6,2.7-6,6v19"/>
		<line class="st0" x1="41" y1="59" x2="23" y2="59"/>
		<line class="st0" x1="31" y1="37" x2="33" y2="37"/>
		<line class="st0" x1="27" y1="37" x2="29" y2="37"/>
		<line class="st0" x1="35" y1="37" x2="37" y2="37"/>
		<path class="st0" d="M37,6.5c0,3.5-2,6.5-5,6.5s-5-3-5-6.5S28,1,32,1S37,3,37,6.5z"/>
		<path class="st0" d="M35,12l7,4v2c0,1.7-1,3-2,3H24c-1,0-2-1.3-2-3v-2l7-4"/>
		<path class="st0" d="M16,44.5c0,3.5-2,6.5-5,6.5s-5-3-5-6.5S7,39,11,39S16,41,16,44.5z"/>
		<path class="st0" d="M14,50l7,4v2c0,1.7-1,3-2,3H3c-1,0-2-1.3-2-3v-2l7-4"/>
		<path class="st0" d="M58,44.5c0,3.5-2,6.5-5,6.5s-5-3-5-6.5s1-5.5,5-5.5S58,41,58,44.5z"/>
		<path class="st0" d="M56,50l7,4v2c0,1.7-1,3-2,3H45c-1,0-2-1.3-2-3v-2l7-4"/>
		<circle class="st0" cx="32" cy="37" r="10"/>
	</g>
</g>
</svg>
