<?xml version="1.0" encoding="utf-8"?>
<!-- Generator: Adobe Illustrator 21.1.0, SVG Export Plug-In . SVG Version: 6.00 Build 0)  -->
<svg version="1.1" id="Layer_1" xmlns="http://www.w3.org/2000/svg" xmlns:xlink="http://www.w3.org/1999/xlink" x="0px" y="0px"
	 viewBox="0 0 54 64" style="enable-background:new 0 0 54 64;" xml:space="preserve">
<style type="text/css">
	.st0{fill:none;stroke:#07354B;stroke-width:2;stroke-linejoin:round;}
	.st1{fill:none;stroke:#07354B;stroke-width:2;stroke-miterlimit:10;}
</style>
<title>Asset 21</title>
<g id="Layer_2">
	<g id="Layer_2-2">
		<path class="st0" d="M38,41l4,2c6,2,11,3.9,11,10v11"/>
		<path class="st0" d="M16,41l-4,2C6,45,1,46.9,1,53v11"/>
		<line class="st0" x1="11" y1="56" x2="11" y2="64"/>
		<line class="st0" x1="43" y1="56" x2="43" y2="64"/>
		<line class="st0" x1="21" y1="37" x2="21" y2="32"/>
		<line class="st0" x1="33" y1="37" x2="33" y2="32"/>
		<polygon class="st0" points="27,39 35,37 40,41 31,46 27,42 23,46 14,41 19,37 		"/>
		<line class="st0" x1="27" y1="50" x2="27" y2="64"/>
		<polygon class="st0" points="45,7 27,13 9,7 27,1 		"/>
		<path class="st1" d="M38,13c0,2.2-4.9,4-11,4s-11-1.8-11-4v8l1,1c0,5,3,12,10,12s10-7,10-12l1-1V13z"/>
		<line class="st0" x1="45" y1="7" x2="45" y2="18"/>
		<line class="st0" x1="45" y1="20" x2="45" y2="22"/>
		<line class="st0" x1="27" y1="46" x2="27" y2="48"/>
	</g>
</g>
</svg>
