<?xml version="1.0" encoding="utf-8"?>
<!-- Generator: Adobe Illustrator 21.1.0, SVG Export Plug-In . SVG Version: 6.00 Build 0)  -->
<svg version="1.1" id="Layer_1" xmlns="http://www.w3.org/2000/svg" xmlns:xlink="http://www.w3.org/1999/xlink" x="0px" y="0px"
	 viewBox="0 0 62 64" style="enable-background:new 0 0 62 64;" xml:space="preserve">
<style type="text/css">
	.st0{fill:none;stroke:#07354B;stroke-width:2;stroke-miterlimit:10;}
</style>
<title>Asset 30</title>
<g id="Layer_2">
	<g id="Layer_2-2">
		<path class="st0" d="M26.1,2.9C27.5,1.7,29.2,1,31,1c7.7,0,14,13.9,14,31s-6.3,31-14,31S17,49.1,17,32c-0.1-6.5,0.9-12.9,2.9-19"
			/>
		<path class="st0" d="M58.7,42.9c0.2,1.6-0.1,3.2-0.8,4.6c-3.9,6.7-19,5.2-33.9-3.4S0.3,23.2,4.2,16.5s19-5.2,33.8,3.4
			c5.7,3.2,10.7,7.3,15.1,12.1"/>
		<path class="st0" d="M3.3,42.9c-0.2,1.6,0.1,3.2,0.9,4.6c3.8,6.7,19,5.2,33.8-3.4s23.7-20.9,19.8-27.6s-19-5.2-33.8,3.4
			C18.3,23.1,13.3,27.2,8.9,32"/>
		<circle class="st0" cx="4" cy="40" r="3"/>
		<circle class="st0" cx="58" cy="40" r="3"/>
		<circle class="st0" cx="24" cy="5" r="3"/>
		<path class="st0" d="M22,40c0-6,6-7,6-7"/>
		<path class="st0" d="M40,40c0-6-6-7-6-7"/>
		<path class="st0" d="M36,27.5c0,3.5-2,6.5-5,6.5s-5-3-5-6.5s1-5.5,5-5.5S36,24,36,27.5z"/>
	</g>
</g>
</svg>
