<?xml version="1.0" encoding="utf-8"?>
<!-- Generator: Adobe Illustrator 21.1.0, SVG Export Plug-In . SVG Version: 6.00 Build 0)  -->
<svg version="1.1" id="Layer_1" xmlns="http://www.w3.org/2000/svg" xmlns:xlink="http://www.w3.org/1999/xlink" x="0px" y="0px"
	 viewBox="0 0 64 60" style="enable-background:new 0 0 64 60;" xml:space="preserve">
<style type="text/css">
	.st0{fill:none;stroke:#07354B;stroke-width:2;stroke-linejoin:round;}
</style>
<title>Asset 33</title>
<g id="Layer_2">
	<g id="Layer_2-2">
		<polyline class="st0" points="14,21 32,7 50,21 		"/>
		<line class="st0" x1="6" y1="47" x2="58" y2="47"/>
		<line class="st0" x1="4" y1="51" x2="60" y2="51"/>
		<path class="st0" d="M51,44V31c0-1.1,0.9-2,2-2c2.2,0,4-1.8,4-4H7c0,2.2,1.8,4,4,4c1.1,0,2,0.9,2,2v13"/>
		<polygon class="st0" points="57,21 7,21 32,1 		"/>
		<line class="st0" x1="55" y1="44" x2="55" y2="32"/>
		<line class="st0" x1="9" y1="44" x2="9" y2="32"/>
		<line class="st0" x1="31" y1="17" x2="33" y2="17"/>
		<line class="st0" x1="35" y1="17" x2="37" y2="17"/>
		<line class="st0" x1="27" y1="17" x2="29" y2="17"/>
		<rect x="1" y="55" class="st0" width="62" height="4"/>
		<path class="st0" d="M18,44V31c0-1.1,0.9-2,2-2s2,0.9,2,2v13"/>
		<path class="st0" d="M26,44V31c0-1.1,0.9-2,2-2s2,0.9,2,2v13"/>
		<path class="st0" d="M34,44V31c0-1.1,0.9-2,2-2s2,0.9,2,2v13"/>
		<path class="st0" d="M42,44V31c0-1.1,0.9-2,2-2s2,0.9,2,2v13"/>
	</g>
</g>
</svg>
