<?xml version="1.0" encoding="utf-8"?>
<!-- Generator: Adobe Illustrator 21.1.0, SVG Export Plug-In . SVG Version: 6.00 Build 0)  -->
<svg version="1.1" id="Layer_1" xmlns="http://www.w3.org/2000/svg" xmlns:xlink="http://www.w3.org/1999/xlink" x="0px" y="0px"
	 viewBox="0 0 64 58" style="enable-background:new 0 0 64 58;" xml:space="preserve">
<style type="text/css">
	.st0{fill:none;stroke:#07354B;stroke-width:2;stroke-miterlimit:10;}
	.st1{fill:none;stroke:#07354B;stroke-width:2;stroke-linejoin:round;}
</style>
<title>Asset 25</title>
<g id="Layer_2">
	<g id="Layer_2-2">
		<path class="st0" d="M37,23.5c0,3.5-2,6.5-5,6.5s-5-3-5-6.5s1-5.5,5-5.5S37,20,37,23.5z"/>
		<path class="st0" d="M35,29l7,4v2c0,1.7-1,3-2,3H24c-1,0-2-1.3-2-3v-2l7-4"/>
		<path class="st1" d="M14.1,20c5-9.9,17-13.8,26.9-8.9c6.8,3.4,11,10.3,11,17.9h-3l7,10l7-10h-3C60,13.5,47.5,1,32,1
			C22.8,1,14.2,5.5,9,13"/>
		<path class="st1" d="M49.9,38c-5,9.9-17,13.8-26.9,8.9C16.3,43.5,12,36.6,12,29h3L8,19L1,29h3c0,15.5,12.5,28,28,28
			c9.2,0,17.8-4.5,23-12"/>
	</g>
</g>
</svg>
