<?xml version="1.0" encoding="utf-8"?>
<!-- Generator: Adobe Illustrator 21.1.0, SVG Export Plug-In . SVG Version: 6.00 Build 0)  -->
<svg version="1.1" id="Layer_1" xmlns="http://www.w3.org/2000/svg" xmlns:xlink="http://www.w3.org/1999/xlink" x="0px" y="0px"
	 viewBox="0 0 64 64" style="enable-background:new 0 0 64 64;" xml:space="preserve">
<style type="text/css">
	.st0{fill:none;stroke:#07354B;stroke-width:2;stroke-miterlimit:10;}
</style>
<title>Asset 19</title>
<g id="Layer_2">
	<g id="Layer_2-2">
		<path class="st0" d="M18,55v-2l3-10V30c0-1.1-0.9-2-2-2s-2,0.9-2,2v-2c0-1.1-0.9-2-2-2s-2,0.9-2,2v-2c0-1.1-0.9-2-2-2s-2,0.9-2,2
			v2c0-1.1-0.9-2-2-2s-2,0.9-2,2v13"/>
		<line class="st0" x1="9" y1="28" x2="9" y2="38"/>
		<line class="st0" x1="13" y1="28" x2="13" y2="38"/>
		<line class="st0" x1="17" y1="30" x2="17" y2="38"/>
		<path class="st0" d="M3,35c-1.1,0-2,0.9-2,2v6l2,4l3,4v4"/>
		<line class="st0" x1="10" y1="59" x2="8" y2="59"/>
		<path class="st0" d="M5,64v-8c0-0.6,0.4-1,1-1h12c0.6,0,1,0.4,1,1v8"/>
		<path class="st0" d="M38,32v-2l3-10V7c0-1.1-0.9-2-2-2s-2,0.9-2,2V5c0-1.1-0.9-2-2-2s-2,0.9-2,2V3c0-1.1-0.9-2-2-2
			c-1.1,0-2,0.9-2,2v2c0-1.1-0.9-2-2-2s-2,0.9-2,2v13"/>
		<line class="st0" x1="29" y1="5" x2="29" y2="15"/>
		<line class="st0" x1="33" y1="5" x2="33" y2="15"/>
		<line class="st0" x1="37" y1="7" x2="37" y2="15"/>
		<path class="st0" d="M23,12c-1.1,0-2,0.9-2,2v6l2,4l3,4v4"/>
		<line class="st0" x1="30" y1="36" x2="28" y2="36"/>
		<path class="st0" d="M25,64V33c0-0.6,0.4-1,1-1h12c0.6,0,1,0.4,1,1v31"/>
		<path class="st0" d="M60,46v-2l3-10V21c0-1.1-0.9-2-2-2s-2,0.9-2,2v-2c0-1.1-0.9-2-2-2s-2,0.9-2,2v-2c0-1.1-0.9-2-2-2s-2,0.9-2,2
			v2c0-1.1-0.9-2-2-2s-2,0.9-2,2v13"/>
		<line class="st0" x1="51" y1="19" x2="51" y2="29"/>
		<line class="st0" x1="55" y1="19" x2="55" y2="29"/>
		<line class="st0" x1="59" y1="21" x2="59" y2="29"/>
		<path class="st0" d="M45,26c-1.1,0-2,0.9-2,2v6l2,4l3,4v4"/>
		<line class="st0" x1="52" y1="50" x2="50" y2="50"/>
		<path class="st0" d="M47,64V47c0-0.6,0.4-1,1-1h12c0.6,0,1,0.4,1,1v17"/>
	</g>
</g>
</svg>
