<?xml version="1.0" encoding="utf-8"?>
<!-- Generator: Adobe Illustrator 21.1.0, SVG Export Plug-In . SVG Version: 6.00 Build 0)  -->
<svg version="1.1" id="Layer_1" xmlns="http://www.w3.org/2000/svg" xmlns:xlink="http://www.w3.org/1999/xlink" x="0px" y="0px"
	 viewBox="0 0 64 64" style="enable-background:new 0 0 64 64;" xml:space="preserve">
<style type="text/css">
	.st0{fill:none;stroke:#07354B;stroke-width:2;stroke-miterlimit:10;}
</style>
<title>Asset 16</title>
<g id="Layer_2">
	<g id="Layer_2-2">
		<circle class="st0" cx="32" cy="32" r="17"/>
		<circle class="st0" cx="32" cy="32" r="23"/>
		<circle class="st0" cx="32" cy="32" r="31"/>
		<line class="st0" x1="32" y1="0" x2="32" y2="9"/>
		<line class="st0" x1="16" y1="48" x2="10" y2="54"/>
		<line class="st0" x1="10" y1="10" x2="16" y2="16"/>
		<line class="st0" x1="9" y1="16" x2="11" y2="16"/>
		<line class="st0" x1="7" y1="20" x2="9" y2="20"/>
		<line class="st0" x1="5" y1="24" x2="7" y2="24"/>
		<line class="st0" x1="4" y1="28" x2="6" y2="28"/>
		<line class="st0" x1="4" y1="32" x2="6" y2="32"/>
		<line class="st0" x1="4" y1="36" x2="6" y2="36"/>
		<line class="st0" x1="5" y1="40" x2="7" y2="40"/>
		<line class="st0" x1="7" y1="44" x2="9" y2="44"/>
		<line class="st0" x1="9" y1="48" x2="11" y2="48"/>
		<line class="st0" x1="55" y1="32" x2="63" y2="32"/>
		<line class="st0" x1="48" y1="48" x2="54" y2="54"/>
		<ellipse class="st0" cx="32" cy="32" rx="8" ry="17"/>
		<line class="st0" x1="16" y1="27" x2="48" y2="27"/>
		<line class="st0" x1="16" y1="37" x2="48" y2="37"/>
	</g>
</g>
</svg>
