<?xml version="1.0" encoding="utf-8"?>
<!-- Generator: Adobe Illustrator 21.1.0, SVG Export Plug-In . SVG Version: 6.00 Build 0)  -->
<svg version="1.1" id="Layer_1" xmlns="http://www.w3.org/2000/svg" xmlns:xlink="http://www.w3.org/1999/xlink" x="0px" y="0px"
	 viewBox="0 0 60 64" style="enable-background:new 0 0 60 64;" xml:space="preserve">
<style type="text/css">
	.st0{fill:none;stroke:#07354B;stroke-width:2;stroke-miterlimit:10;}
	.st1{fill:none;stroke:#07354B;stroke-width:2;stroke-linejoin:round;}
</style>
<title>Asset 22</title>
<g id="Layer_2">
	<g id="Layer_2-2">
		<circle class="st0" cx="30" cy="6" r="5"/>
		<line class="st0" x1="49" y1="64" x2="49" y2="46"/>
		<circle class="st0" cx="49" cy="13" r="4"/>
		<polyline class="st0" points="40,43 43,43 43,64 		"/>
		<path class="st0" d="M55,64V43h4V26c0-2.8-2.2-5-5-5H44"/>
		<line class="st0" x1="49" y1="24" x2="49" y2="26"/>
		<line class="st0" x1="11" y1="64" x2="11" y2="46"/>
		<polyline class="st0" points="20,43 17,43 17,64 		"/>
		<path class="st0" d="M5,64V43H1V26c0-2.8,2.2-5,5-5h10"/>
		<line class="st0" x1="11" y1="24" x2="11" y2="26"/>
		<circle class="st0" cx="11" cy="13" r="4"/>
		<path class="st0" d="M19,21"/>
		<path class="st0" d="M41,21"/>
		<path class="st0" d="M23,64V39h-4V21c0-3.3,2.7-6,6-6h10c3.3,0,6,2.7,6,6v18h-4v25"/>
		<line class="st0" x1="30" y1="42" x2="30" y2="64"/>
		<polyline class="st1" points="35,13 35,17 30,22 25,17 25,13 		"/>
		<line class="st1" x1="30" y1="22" x2="30" y2="29"/>
		<circle class="st1" cx="30" cy="29" r="1"/>
	</g>
</g>
</svg>
