<?xml version="1.0" encoding="utf-8"?>
<!-- Generator: Adobe Illustrator 21.1.0, SVG Export Plug-In . SVG Version: 6.00 Build 0)  -->
<svg version="1.1" id="Layer_1" xmlns="http://www.w3.org/2000/svg" xmlns:xlink="http://www.w3.org/1999/xlink" x="0px" y="0px"
	 viewBox="0 0 48 64" style="enable-background:new 0 0 48 64;" xml:space="preserve">
<style type="text/css">
	.st0{fill:none;stroke:#07354B;stroke-width:2;stroke-linejoin:round;}
	.st1{fill:none;stroke:#07354B;stroke-width:2;stroke-linecap:round;stroke-linejoin:round;}
</style>
<title>Asset 24</title>
<g id="Layer_2">
	<g id="Layer_2-2">
		<path class="st0" d="M33,10c0-6.1-2.9-9-9-9s-9,2.9-9,9v1c0,7,4,13,9,13s9-6,9-13V10z"/>
		<line class="st0" x1="9" y1="46" x2="9" y2="42"/>
		<line class="st0" x1="9" y1="64" x2="9" y2="59"/>
		<line class="st0" x1="39" y1="64" x2="39" y2="46"/>
		<line class="st0" x1="37" y1="29" x2="7" y2="59"/>
		<line class="st0" x1="45" y1="33" x2="19" y2="59"/>
		<line class="st0" x1="35" y1="50" x2="26" y2="59"/>
		<polyline class="st0" points="7,51 9,49 17,49 		"/>
		<path class="st0" d="M32,26c0,2.8-3.6,5-8,5s-8-2.2-8-5"/>
		<path class="st0" d="M19,22v2l-3,2C9,30,1,30,1,40v17c0,1.1,0.9,2,2,2h30c1.1,0,2-0.9,2-2v-6c0-1.1-0.9-2-2-2h-4"/>
		<path class="st0" d="M47,64V40c-1-10-8-10-15-14l-3-2v-2"/>
		<line class="st0" x1="15" y1="14" x2="33" y2="7"/>
		<line class="st0" x1="17" y1="13" x2="23" y2="1"/>
		<line class="st1" x1="25" y1="10" x2="28" y2="3"/>
	</g>
</g>
</svg>
