<?xml version="1.0" encoding="utf-8"?>
<!-- Generator: Adobe Illustrator 22.0.1, SVG Export Plug-In . SVG Version: 6.00 Build 0)  -->
<svg version="1.1" id="Layer_1" xmlns="http://www.w3.org/2000/svg" xmlns:xlink="http://www.w3.org/1999/xlink" x="0px" y="0px"
	 viewBox="0 0 64 61.9" style="enable-background:new 0 0 64 61.9;" xml:space="preserve">
<style type="text/css">
	.st0{fill:none;stroke:#000000;stroke-width:2;stroke-linejoin:round;}
</style>
<title>Group 55</title>
<desc>Created with Sketch.</desc>
<g id="Visuals-_x2B_-Illustrations">
	<g id="Artboard-4" transform="translate(-1474.000000, -1986.000000)">
		<g id="Group-55" transform="translate(1475.077263, 1987.838558)">
			<polygon id="Stroke-840" class="st0" points="57.9,59 3.9,59 -0.1,55 -0.1,53 23.9,53 25.9,55 35.9,55 37.9,53 61.9,53 61.9,55 
							"/>
			<path id="Stroke-841" class="st0" d="M7.9,15h-1c-1.7,0-3,1.3-3,3v32"/>
			<path id="Stroke-842" class="st0" d="M57.9,50V18c0-1.7-1.3-3-3-3h-1"/>
			<path id="Stroke-843" class="st0" d="M25.9,47h2"/>
			<path id="Stroke-844" class="st0" d="M21.9,47h2"/>
			<path id="Stroke-845" class="st0" d="M29.9,47h2"/>
			<path id="Stroke-846" class="st0" d="M33.9,47h2"/>
			<path id="Stroke-847" class="st0" d="M37.9,47h2"/>
			<path id="Stroke-848" class="st0" d="M57.9,47h-16"/>
			<path id="Stroke-849" class="st0" d="M19.9,47h-16"/>
			<path id="Stroke-850" class="st0" d="M32.8,41.9c-11.8,0-21.4-9.6-21.4-21.4c0-5.7,2.2-11.1,6.1-15.1c4-4,9.3-6.2,15-6.2
				c9.9,0,17.9,8,17.9,17.9c0,4.8-1.8,9.3-5.1,12.7c-2.9,3-6.8,4.8-10.9,5.2v5.3C34.4,41.1,33.7,41.9,32.8,41.9"/>
			<path id="Stroke-851" class="st0" d="M32.5,4.9c6.7,0,12.2,5.5,12.2,12.2c0,3.3-1.2,6.4-3.5,8.6c-2,2-4.5,3.2-7.3,3.5"/>
			<path id="Stroke-852" class="st0" d="M28.7,35.6c-6.6-1.8-11.5-7.9-11.5-15.1"/>
			<path id="Stroke-853" class="st0" d="M29.9,19.1h2"/>
			<path id="Stroke-854" class="st0" d="M25.9,19.1h2"/>
			<path id="Stroke-855" class="st0" d="M33.9,19.1h2"/>
		</g>
	</g>
</g>
</svg>
