<?xml version="1.0" encoding="utf-8"?>
<!-- Generator: Adobe Illustrator 21.1.0, SVG Export Plug-In . SVG Version: 6.00 Build 0)  -->
<svg version="1.1" id="Layer_1" xmlns="http://www.w3.org/2000/svg" xmlns:xlink="http://www.w3.org/1999/xlink" x="0px" y="0px"
	 viewBox="0 0 64 64" style="enable-background:new 0 0 64 64;" xml:space="preserve">
<style type="text/css">
	.st0{fill:none;stroke:#07354B;stroke-width:2;stroke-linejoin:round;}
	.st1{fill:none;stroke:#07354B;stroke-width:2;stroke-miterlimit:10;}
</style>
<title>Asset 11</title>
<g id="Layer_2">
	<g id="Layer_2-2">
		<circle class="st0" cx="32" cy="6" r="5"/>
		<circle class="st0" cx="6" cy="6" r="5"/>
		<path class="st0" d="M43,29v-8c0-3.3-2.7-6-6-6H27c-3.3,0-6,2.7-6,6v8"/>
		<rect x="13" y="32" class="st1" width="38" height="4"/>
		<path class="st0" d="M13,29v-7c0-3.9-3.1-7-7-7H4c-1.7,0-3,1.3-3,3v23c0,2.8,2.2,5,5,5h7l7,17h2c4,0,4-4,4-4V39"/>
		<circle class="st0" cx="58" cy="6" r="5"/>
		<path class="st0" d="M51,29v-7c0-3.9,3.1-7,7-7h2c1.7,0,3,1.3,3,3v23c0,2.8-2.2,5-5,5h-7l-7,17h-2c-4,0-4-4-4-4V39"/>
		<line class="st0" x1="32" y1="39" x2="32" y2="64"/>
		<line class="st0" x1="31" y1="19" x2="33" y2="19"/>
		<line class="st0" x1="31" y1="23" x2="33" y2="23"/>
	</g>
</g>
</svg>
