<svg id="Layer_1" data-name="Layer 1" xmlns="http://www.w3.org/2000/svg" viewBox="0 0 64 46"><defs><style>.cls-1,.cls-3,.cls-5{fill:none;}.cls-1,.cls-2,.cls-3,.cls-4{stroke:#000;}.cls-1,.cls-2{stroke-linecap:round;}.cls-1,.cls-2,.cls-3,.cls-4,.cls-5{stroke-linejoin:round;stroke-width:2px;}.cls-2,.cls-4{fill:#d0021b;}.cls-5{stroke:#1088c6;}</style></defs><title>icon_ask_question</title><g id="Group-11"><path id="Stroke-234" class="cls-1" d="M53,42,5,26"/><polyline id="Stroke-235" class="cls-1" points="5 20 35.64 9.79 53 4"/><path id="Stroke-236" class="cls-2" d="M1,20a2,2,0,0,1,4,0v6a2,2,0,0,1-4,0Z"/><path id="Stroke-237" class="cls-3" d="M59,30V42a3,3,0,0,1-6,0V30"/><path id="Stroke-238" class="cls-3" d="M53,16V4a3,3,0,0,1,6,0V16"/><polyline id="Stroke-239" class="cls-3" points="26 33 26 38 12 33 12 28"/><polygon id="Stroke-240" class="cls-4" points="35 10 35 36 6.27 26.12 6.27 20.12 35 10"/><path id="Stroke-241" class="cls-5" d="M44,21c2.4,0,1.6-2,4-2s1.6,2,4,2,1.6-2,4-2,1.6,2,4,2,1.6-2,4-2"/><path id="Stroke-242" class="cls-5" d="M40,25c2.4,0,1.6,2,4,2s1.6-2,4-2,1.6,2,4,2,1.6-2,4-2,1.6,2,4,2"/></g></svg>