<svg xmlns="http://www.w3.org/2000/svg" xmlns:xlink="http://www.w3.org/1999/xlink" viewBox="0 0 50 64"><defs><style>.cls-1,.cls-3,.cls-4{fill:none;}.cls-2{clip-path:url(#clip-path);}.cls-3{stroke:#979797;}.cls-4{stroke:#000;stroke-linejoin:round;stroke-width:2px;}.cls-5{fill:#ee8486;}.cls-6{fill:#fec34e;}</style><clipPath id="clip-path" transform="translate(0 0)"><rect class="cls-1" width="50" height="64"/></clipPath></defs><title>Asset 2</title><g id="Layer_2" data-name="Layer 2"><g id="Layer_1-2" data-name="Layer 1"><g id="Group-10"><g class="cls-2"><polygon points="13.16 61.76 9.69 62.73 10.93 58.93 13.16 61.76"/><g class="cls-2"><polygon class="cls-3" points="13.16 61.76 9.69 62.73 10.93 58.93 13.16 61.76"/></g><polyline class="cls-4" points="45 36 45 59 22 59"/><g class="cls-2"><polyline class="cls-4" points="37 1 37 9 45 9"/><polyline class="cls-4" points="7 59 1 59 1 1 37 1 45 9 45 20"/><line class="cls-4" x1="17" y1="60" x2="12" y2="55"/></g><polyline class="cls-4" points="27 34 37 24 45 32"/><g class="cls-2"><polygon class="cls-4" points="44 23 12 55 9 63 17 60 49 28 44 23"/></g><line class="cls-4" x1="22" y1="45" x2="27" y2="50"/><rect class="cls-5" x="42.23" y="24.29" width="5" height="6" transform="translate(-6.4 38.73) rotate(-44)"/><rect class="cls-6" x="8.91" y="41.56" width="38.19" height="5" transform="translate(-22.95 32.7) rotate(-44.99)"/></g></g></g></g></svg>