<svg id="Layer_1" data-name="Layer 1" xmlns="http://www.w3.org/2000/svg" viewBox="0 0 59.53 64.07"><defs><style>.cls-1{fill:#e0cbcb;}.cls-1,.cls-5{stroke:#000;stroke-linejoin:round;stroke-width:1.53px;}.cls-2{fill:#1088c6;}.cls-3{fill:#b8e986;}.cls-4{fill:#88cef3;}.cls-5{fill:none;}</style></defs><title>icon_have_convos</title><g id="Group-38"><path id="Stroke-44" class="cls-1" d="M52.77,5.77a5,5,0,1,1-5-5A5,5,0,0,1,52.77,5.77Z"/><path id="Stroke-54" class="cls-1" d="M6.66,5.77a5,5,0,1,0,5-5A5,5,0,0,0,6.66,5.77Z"/><rect id="Rectangle" class="cls-2" x="4.21" y="38.07" width="15" height="26"/><g id="Group-3"><path id="Rectangle-2" data-name="Rectangle" class="cls-3" d="M4.21,15.07h15c1.62,0,3.73,3.38,6.5,7.46,3.07,4.54,6.74,9.95,6.5,12.54-.1,1.08-1.51,1.71-4.23-.11-3.62-2.42-9.54-8.38-17.77-15.89l-9,19C-.38,25.61,0,19.21,2.3,16.88,2.83,16.34,3.47,15.07,4.21,15.07Z"/><rect id="Rectangle-3" data-name="Rectangle" class="cls-3" x="1.21" y="19.07" width="18" height="19"/></g><g id="Group-3-2" data-name="Group-3"><path id="Rectangle-4" data-name="Rectangle" class="cls-4" d="M54.37,15.07H41.89c-3.31,0-13.22,12.31-10.66,16.08.37.55.79,1.9,1.31,2,1.6.41,4.13-2.79,9-7.62,1.93-1.92,4.24-3.24,7-6l9.69,18.48C60.16,20.73,58.2,15.07,54.37,15.07Z"/><rect id="Rectangle-5" data-name="Rectangle" class="cls-4" x="40.21" y="19.07" width="18" height="19"/></g><rect id="Rectangle-6" data-name="Rectangle" class="cls-2" x="40.21" y="38.07" width="15" height="26"/><path id="Stroke-52" class="cls-5" d="M11.77,63.77v-23"/><path id="Stroke-56" class="cls-5" d="M32.77,33.77l-11-16a7.58,7.58,0,0,0-6.11-3h-8a6.91,6.91,0,0,0-6.89,7v16h4v26"/><path id="Stroke-43" class="cls-5" d="M47.77,63.77v-23"/><path id="Stroke-46" class="cls-5" d="M29.94,29.66l7.83-11.89a7.5,7.5,0,0,1,6-3h8a7,7,0,0,1,7,7v16h-4v26"/><polyline id="Stroke-58" class="cls-5" points="18.77 63.77 18.77 25.77 29.77 36.77 40.77 25.77 40.77 63.77"/><path id="Stroke-48" class="cls-5" d="M47.77,17.77v2"/><path id="Stroke-50" class="cls-5" d="M47.77,21.77v2"/></g></svg>