<svg xmlns="http://www.w3.org/2000/svg" xmlns:xlink="http://www.w3.org/1999/xlink" viewBox="0 0 64.53 55.53"><defs><style>.cls-1,.cls-4,.cls-9{fill:none;}.cls-2{clip-path:url(#clip-path);}.cls-3{fill:#e0cbcb;}.cls-4,.cls-9{stroke:#000;stroke-linejoin:round;stroke-width:1.53px;}.cls-5{fill:#8b572a;}.cls-6{fill:#1088c6;}.cls-7{opacity:0.7;}.cls-8{clip-path:url(#clip-path-4);}.cls-9{stroke-linecap:round;}</style><clipPath id="clip-path" transform="translate(0 0)"><rect class="cls-1" width="64.53" height="55.53"/></clipPath><clipPath id="clip-path-4" transform="translate(0 0)"><rect class="cls-1" x="16.76" y="37.76" width="47" height="17"/></clipPath></defs><title>Asset 1</title><g id="Layer_2" data-name="Layer 2"><g id="Layer_1-2" data-name="Layer 1"><g id="Group-44"><g class="cls-2"><g class="cls-2"><polygon class="cls-3" points="33.77 35.65 33.77 32.77 35.73 33.29 38.22 34.21 41.09 34.21 44.19 33.29 45.85 32.77 46.77 34.21 45.85 35.65 44.19 36.44 41.99 37.27 40.27 37.77 38.22 37.27 36.39 37.27 35.16 36.44 33.77 35.65"/><polygon class="cls-4" points="33.77 35.65 33.77 32.77 35.73 33.29 38.22 34.21 41.09 34.21 44.19 33.29 45.85 32.77 46.77 34.21 45.85 35.65 44.19 36.44 41.99 37.27 40.27 37.77 38.22 37.27 36.39 37.27 35.16 36.44 33.77 35.65"/><line class="cls-4" x1="45.76" y1="35.76" x2="45.76" y2="32.76"/><g class="cls-2"><path class="cls-5" d="M28.76,21.76V14.34a2.91,2.91,0,0,1,3-2.79h1a2.91,2.91,0,0,1,3-2.79h11a3.87,3.87,0,0,1,4,3.72v9.28h-1a1.93,1.93,0,0,1-2-1.85V18.05a1.94,1.94,0,0,0-2-1.86V14.34l-4,1.85h-8a1.94,1.94,0,0,0-2,1.86v1.86a1.93,1.93,0,0,1-2,1.85Z" transform="translate(0 0)"/><path class="cls-4" d="M28.76,21.76V14.34a2.91,2.91,0,0,1,3-2.79h1a2.91,2.91,0,0,1,3-2.79h11a3.87,3.87,0,0,1,4,3.72v9.28h-1a1.93,1.93,0,0,1-2-1.85V18.05a1.94,1.94,0,0,0-2-1.86V14.34l-4,1.85h-8a1.94,1.94,0,0,0-2,1.86v1.86a1.93,1.93,0,0,1-2,1.85Z" transform="translate(0 0)"/><path class="cls-3" d="M50.76,22.71v2.07l-1,.69c0,3.46-3,8.29-10,8.29-5,0-7.95-2.46-9.24-5.13a7.45,7.45,0,0,1-.76-3.16l-1-.69V22.71l1.76-1.65,1.74-2.76V16.57h10.9l1.64-1.81,1.75,1.81,1.72,1.73Z" transform="translate(0 0)"/><path class="cls-4" d="M50.76,22.71v2.07l-1,.69c0,3.46-3,8.29-10,8.29-5,0-7.95-2.46-9.24-5.13a7.45,7.45,0,0,1-.76-3.16l-1-.69V22.71l1.76-1.65,1.74-2.76V16.57h10.9l1.64-1.81,1.75,1.81,1.72,1.73Z" transform="translate(0 0)"/><polygon class="cls-6" points="36.38 43.77 28.77 38.77 33 35.77 39.77 37.77 39.77 39.77 36.38 43.77"/><polygon class="cls-4" points="36.38 43.77 28.77 38.77 33 35.77 39.77 37.77 39.77 39.77 36.38 43.77"/><polygon class="cls-6" points="43.15 43.77 50.77 38.77 46.53 35.77 39.77 37.77 39.77 39.77 43.15 43.77"/><polygon class="cls-4" points="43.15 43.77 50.77 38.77 46.53 35.77 39.77 37.77 39.77 39.77 43.15 43.77"/><line class="cls-4" x1="39.76" y1="48.76" x2="39.76" y2="50.76"/><line class="cls-4" x1="39.76" y1="44.76" x2="39.76" y2="46.76"/><line class="cls-4" x1="39.76" y1="52.76" x2="39.76" y2="54.76"/><path class="cls-4" d="M48.76,37.76l4.38,1.85c5.25,1.23,9.62,3,9.62,6.77v7.38" transform="translate(0 0)"/><g class="cls-7"><g class="cls-8"><path class="cls-6" d="M30.86,37.76l-2.06.89-2.34,1a23.46,23.46,0,0,0-6.79,2.48c-1.79,1.1-2.91,2.53-2.91,4.46v7.56l2.91.6H56.94l5.25-.6,1.45.6V50.23a19.62,19.62,0,0,0,0-4.61,4.42,4.42,0,0,0-1.45-2.28l-2.31-1.2L56.94,41l-2.25-.68-2.46-.65h-1.3l-1.32.65-2.09,1.83-2,1.2-1.27.6-.61.58-1-1.18-.79-1.82-1.63-1.21-1.32,1.21-1.31,1.82-1.1.6L35,43.34,32.41,41,30,38.65" transform="translate(0 0)"/></g></g><path class="cls-4" d="M30.86,37.76l-2.06.89-2.34,1a23.46,23.46,0,0,0-6.79,2.48c-1.79,1.1-2.91,2.53-2.91,4.46v7.56l2.91.6H56.94l5.25-.6,1.45.6V50.23a19.62,19.62,0,0,0,0-4.61,4.42,4.42,0,0,0-1.45-2.28l-2.31-1.2L56.94,41l-2.25-.68-2.46-.65h-1.3l-1.32.65-2.09,1.83-2,1.2-1.27.6-.61.58-1-1.18-.79-1.82-1.63-1.21-1.32,1.21-1.31,1.82-1.1.6L35,43.34,32.41,41,30,38.65" transform="translate(0 0)"/><path class="cls-9" d="M17.2,30.76a18.1,18.1,0,0,1-4.4-.54A17,17,0,0,1,7.63,28,14.67,14.67,0,0,1,.77,15.74,14.34,14.34,0,0,1,5.48,5.15,16.85,16.85,0,0,1,17,.76c7.59,0,13.77,5.66,13.77,12.61H29.23v6.75l-2.93,2-2.61,1.32-2.87,1.67H18.91v3.41Zm9.64-8.49a13.87,13.87,0,0,1-8.39,3.64v3.7a1.2,1.2,0,0,1-1.25,1.15" transform="translate(0 0)"/><line class="cls-9" x1="7.76" y1="8.76" x2="22.76" y2="8.76"/><line class="cls-9" x1="6.76" y1="13.76" x2="25.76" y2="13.76"/><line class="cls-9" x1="7.76" y1="18.76" x2="22.76" y2="18.76"/></g></g></g></g></g></g></svg>