<svg xmlns="http://www.w3.org/2000/svg" xmlns:xlink="http://www.w3.org/1999/xlink" viewBox="0 0 58.11 64.44"><defs><style>.cls-1,.cls-4{fill:none;}.cls-2{clip-path:url(#clip-path);}.cls-3{fill:#e0cbcb;}.cls-4{stroke:#000;stroke-width:2px;}.cls-5{fill:#88cef3;}.cls-6{fill:#7ed321;}.cls-7{fill:#1088c6;}</style><clipPath id="clip-path" transform="translate(0 0)"><rect class="cls-1" width="58.11" height="64.44"/></clipPath></defs><title>Asset 1</title><g id="Layer_2" data-name="Layer 2"><g id="Layer_1-2" data-name="Layer 1"><g id="Group-5"><g class="cls-2"><g class="cls-2"><path class="cls-3" d="M34.11,6a5,5,0,1,1-5-5,5,5,0,0,1,5,5" transform="translate(0 0)"/><circle class="cls-4" cx="29.11" cy="6" r="5"/><path class="cls-3" d="M51.11,13a4,4,0,1,1-4-4,4,4,0,0,1,4,4" transform="translate(0 0)"/><circle class="cls-4" cx="47.11" cy="13" r="4"/><path class="cls-5" d="M53.11,64.44v-21h4v-17a5,5,0,0,0-5-5H40v43" transform="translate(0 0)"/><path class="cls-4" d="M53.11,64.44v-21h4v-17a5,5,0,0,0-5-5H40v43" transform="translate(0 0)"/><path class="cls-3" d="M15.11,13a4,4,0,1,1-4-4,4,4,0,0,1,4,4" transform="translate(0 0)"/><circle class="cls-4" cx="11.11" cy="13" r="4"/><path class="cls-6" d="M22.11,64V39h-4V21a6,6,0,0,1,6-6h10a6,6,0,0,1,6,6V39h-4V64" transform="translate(0 0)"/><path class="cls-4" d="M22.11,64V39h-4V21a6,6,0,0,1,6-6h10a6,6,0,0,1,6,6V39h-4V64" transform="translate(0 0)"/><line class="cls-4" x1="47.11" y1="24" x2="47.11" y2="26"/><path class="cls-5" d="M5,64.44v-21H1v-17a5,5,0,0,1,5-5H18.11v43" transform="translate(0 0)"/><path class="cls-4" d="M5,64.44v-21H1v-17a5,5,0,0,1,5-5H18.11v43" transform="translate(0 0)"/><line class="cls-4" x1="11.11" y1="24" x2="11.11" y2="26"/><rect class="cls-7" x="23" y="37.44" width="12" height="27"/><rect class="cls-7" x="6" y="42.44" width="11" height="22"/><rect class="cls-7" x="41" y="42.44" width="11" height="22"/><line class="cls-4" x1="47" y1="64.44" x2="47" y2="46.44"/><line class="cls-4" x1="11" y1="64.44" x2="11" y2="46.44"/><line class="cls-4" x1="29" y1="42.44" x2="29" y2="64.44"/></g></g></g></g></g></svg>