<svg id="Layer_1" data-name="Layer 1" xmlns="http://www.w3.org/2000/svg" viewBox="0 0 64 64"><defs><style>.cls-1{fill:#88cef3;}.cls-1,.cls-3{stroke:#000;}.cls-1,.cls-2,.cls-3{stroke-linejoin:round;stroke-width:2px;}.cls-2,.cls-3{fill:none;}.cls-2{stroke:#4a4a4a;}</style></defs><title>icon_get_answers</title><g id="Group-49"><path id="Stroke-674" class="cls-1" d="M57,61a2,2,0,0,1-2,2H13a2,2,0,0,1-2-2V47a2,2,0,0,1,2-2H55a2,2,0,0,1,2,2v4h6l-6,6Z"/><path id="Stroke-675" class="cls-2" d="M33,54h2"/><path id="Stroke-676" class="cls-2" d="M37,54h2"/><path id="Stroke-677" class="cls-2" d="M29,54h2"/><path id="Stroke-678" class="cls-1" d="M57,17a2,2,0,0,1-2,2H13a2,2,0,0,1-2-2V3a2,2,0,0,1,2-2H55a2,2,0,0,1,2,2V7h6l-6,6Z"/><path id="Stroke-679" class="cls-3" d="M16,8H26"/><path id="Stroke-680" class="cls-3" d="M28,8H46"/><path id="Stroke-681" class="cls-3" d="M16,12H36"/><path id="Stroke-682" class="cls-3" d="M7,39a2,2,0,0,0,2,2H51a2,2,0,0,0,2-2V25a2,2,0,0,0-2-2H9a2,2,0,0,0-2,2v4H1l6,6Z"/><path id="Stroke-683" class="cls-3" d="M12,30H33"/><path id="Stroke-684" class="cls-3" d="M12,34H23"/><path id="Stroke-685" class="cls-3" d="M25,34H43"/></g></svg>