<svg xmlns="http://www.w3.org/2000/svg" xmlns:xlink="http://www.w3.org/1999/xlink" viewBox="0 0 64 64"><defs><style>.cls-1,.cls-6{fill:none;}.cls-2{clip-path:url(#clip-path);}.cls-3{fill:#d0021b;}.cls-4{fill:#f5a623;}.cls-5{fill:#f8e71c;}.cls-6{stroke:#000;stroke-linejoin:round;stroke-width:2px;}</style><clipPath id="clip-path"><rect class="cls-1" width="64" height="64"/></clipPath></defs><title>Asset 3</title><g id="Layer_2" data-name="Layer 2"><g id="Layer_1-2" data-name="Layer 1"><g id="Group-9"><g class="cls-2"><rect class="cls-3" x="1" y="59" width="20" height="5"/><rect class="cls-4" x="20" y="53" width="20" height="11"/><rect class="cls-5" x="40" y="46" width="23" height="18"/><g class="cls-2"><polyline class="cls-6" points="1 64 1 59 21 59 21 64"/><polyline class="cls-6" points="21 56 21 53 41 53 41 64"/><polyline class="cls-6" points="41 50 41 47 63 47 63 64"/><circle class="cls-6" cx="29" cy="5" r="4"/><polyline class="cls-6" points="24.28 15 16.15 17 10.05 23 7 20 14.11 13 25.29 10 30 10"/><polyline class="cls-6" points="25 30 33 32 39 42 43 40 38 29 28 24 30 17 39 16 46 9 43 6 37 12 30 12"/><polyline class="cls-6" points="26 27.16 23 37.07 12 46 9 43.02 17 35.09 20 26.16 21.03 15"/></g></g></g></g></g></svg>