<svg xmlns="http://www.w3.org/2000/svg" viewBox="0 0 1200 68.78"><defs><style>.cls-1{fill:#d6d6d6;}.cls-2{fill:#bfbfbf;}.cls-3{fill:#fff;}.cls-4,.cls-5{fill:#a09f9f;}.cls-5{fill-rule:evenodd;}</style></defs><title>Asset 1</title><g id="Layer_2" data-name="Layer 2"><g id="Layer_1-2" data-name="Layer 1"><path class="cls-1" d="M1200,68.78V7a7,7,0,0,0-7-7H7A7,7,0,0,0,0,7V68.78Z"/><path class="cls-2" d="M323.06,27.31c-1.62-.18-2.18-.71-3.19-2.56,0,0,0,0,0,0-.74-1.62-1.28-2.82-1.31-2.89-2-4.67-8.13-18.74-8.3-19.14a5.12,5.12,0,0,0-.27-.52A4,4,0,0,0,306.54.25H142.33a4,4,0,0,0-3.57,2.19c-.23.46-6.45,14.85-8.45,19.47L129,24.71s0,0,0,0c-1.06,1.92-1.61,2.42-3.38,2.58H323.06Z"/><path class="cls-3" d="M15.21,11.35a4.58,4.58,0,1,1-4.57-4.57A4.58,4.58,0,0,1,15.21,11.35Z"/><path class="cls-3" d="M30.05,11.35a4.57,4.57,0,1,1-4.57-4.57A4.58,4.58,0,0,1,30.05,11.35Z"/><path class="cls-3" d="M44.89,11.35a4.57,4.57,0,1,1-4.57-4.57A4.58,4.58,0,0,1,44.89,11.35Z"/><rect class="cls-2" y="27.31" width="1200" height="41.22"/><polygon class="cls-3" points="304.06 10.77 303.06 9.76 300.03 12.78 297 9.76 295.99 10.77 299.02 13.79 295.99 16.82 297 17.83 300.03 14.8 303.06 17.83 304.06 16.82 301.04 13.79 304.06 10.77"/><polygon class="cls-4" points="47.8 41.01 46.07 42.74 50.03 46.7 39.52 46.7 39.52 49.14 50.03 49.14 46.07 53.1 47.8 54.83 54.71 47.92 47.8 41.01"/><polygon class="cls-4" points="20.71 41.01 22.44 42.74 18.48 46.7 28.99 46.7 28.99 49.14 18.48 49.14 22.44 53.1 20.71 54.83 13.8 47.92 20.71 41.01"/><path class="cls-5" d="M78.77,41s0,.07,0,.11v6.27l-6.46-1.2s0-.07.07-.09l2-1.63c.08-.06.09-.08,0-.14a4.39,4.39,0,0,0-1.76-.64,4,4,0,0,0-2.25.32,4.29,4.29,0,0,0-2.59,3.52,4.32,4.32,0,0,0,2.26,4.35,4.34,4.34,0,0,0,2.51.47,4.31,4.31,0,0,0,3.46-2.49c0-.06,0-.1.12-.08l2.28.56c.07,0,.09,0,.06.11a6.6,6.6,0,0,1-1.79,2.6,6.72,6.72,0,0,1-3.68,1.71,6.65,6.65,0,0,1-2.59-.14,6.78,6.78,0,0,1-4.18-3A6.27,6.27,0,0,1,65.37,49c0-.17,0-.34-.07-.51v-.86s0-.06,0-.09a5.29,5.29,0,0,1,.15-1,6.82,6.82,0,0,1,11-3.82c.07.06.11.06.17,0l2.09-1.65S78.76,41.05,78.77,41Z"/><path class="cls-5" d="M104.1,48.32l.77-.87-.06-.06-7.13-6.31L97.61,41h-.1l-.74.67-6.36,5.64-.16.12v0l.77.86,1.4-1.24V54.4a.42.42,0,0,0,.22.44H96v-.5c0-.76,0-4.4,0-5.15a.34.34,0,0,1,.38-.38h2.49c.26,0,.36.11.36.36,0,.9,0,4.68,0,5.57v.1h3.31a.43.43,0,0,0,.22-.42V47.07Z"/><path class="cls-5" d="M94.21,43.07a.16.16,0,0,0,.05-.09v-1H92.43v2.72l0,0Z"/><path class="cls-4" d="M1166.41,40.1h15.13a.61.61,0,0,1,.61.61v1.85a.6.6,0,0,1-.6.6h-15.14a.6.6,0,0,1-.6-.6V40.71A.61.61,0,0,1,1166.41,40.1Z"/><path class="cls-4" d="M1166.41,46.39h15.13a.61.61,0,0,1,.61.61v1.85a.6.6,0,0,1-.6.6h-15.14a.6.6,0,0,1-.6-.6V47A.61.61,0,0,1,1166.41,46.39Z"/><path class="cls-4" d="M1166.41,52.68h15.13a.61.61,0,0,1,.61.61v1.85a.6.6,0,0,1-.6.6h-15.14a.6.6,0,0,1-.6-.6V53.28A.6.6,0,0,1,1166.41,52.68Z"/><path class="cls-2" d="M352.25,22.69c-1.64-3.77-6.55-15.1-6.69-15.42a4.23,4.23,0,0,0-.22-.42,3.19,3.19,0,0,0-2.75-1.54H316.84l0,.07c1.64,3.76,6.55,15.09,6.69,15.42a2.82,2.82,0,0,0,.22.42,3.21,3.21,0,0,0,2.75,1.54h25.75Z"/><path class="cls-3" d="M1149.44,57.54a4,4,0,0,1-4,4H122.76a4,4,0,0,1-4-4V38.3a4,4,0,0,1,4-4H1145.43a4,4,0,0,1,4,4Z"/><path class="cls-1" d="M136,48.87a4.37,4.37,0,0,0,.75-2.45,4.42,4.42,0,1,0-4.41,4.42A4.48,4.48,0,0,0,135,49.9L139,53.83l1-1Zm-3.66.51a3,3,0,1,1,3-3A3,3,0,0,1,132.32,49.38Z"/></g></g></svg>