<?xml version="1.0" encoding="utf-8"?>
<!-- Generator: Adobe Illustrator 22.0.1, SVG Export Plug-In . SVG Version: 6.00 Build 0)  -->
<svg version="1.1" id="Layer_1" xmlns="http://www.w3.org/2000/svg" xmlns:xlink="http://www.w3.org/1999/xlink" x="0px" y="0px"
	 viewBox="0 0 279 58" style="enable-background:new 0 0 279 58;" xml:space="preserve">
<style type="text/css">
	.st0{fill:#1DADB3;}
	.st1{filter:url(#Adobe_OpacityMaskFilter);}
	.st2{fill:#FFFFFF;}
	.st3{mask:url(#mask-2_1_);fill:#1DADB3;}
	.st4{filter:url(#Adobe_OpacityMaskFilter_1_);}
	.st5{mask:url(#mask-4_1_);fill:#1DADB3;}
</style>
<g id="Page-1">
	<g id="POPin-_x28_Horizontal_x29_-Logo">
		<path id="N" class="st0" d="M228.2,23.7c1.3-2,3-3.6,4.9-4.7c1.9-1.1,4.2-1.7,6.6-1.7c3.4,0,6.1,1,8,3c1.9,2,2.9,4.5,2.9,7.7
			c0,1.2-0.2,2.6-0.6,4.2c-0.4,1.6-0.9,3.4-1.4,5.5c-0.5,1.7-0.8,3.1-1.1,4.4c-0.3,1.3-0.4,2.2-0.4,2.9c0,0.9,0.2,1.6,0.7,2.1
			c0.5,0.4,1.1,0.7,2.1,0.8c0,0,0,0.2-0.1,0.6c-0.1,0.4-0.4,0.9-0.8,1.4c-0.4,0.5-1,0.9-1.8,1.4c-0.8,0.4-1.8,0.6-3.2,0.6
			c-2.3,0-4-0.5-5.1-1.6c-1.1-1.1-1.6-2.5-1.6-4.2c0-1,0.2-2.1,0.5-3.4c0.3-1.3,0.7-2.9,1.2-4.8c0.5-1.6,0.8-3,1.1-4.2
			c0.3-1.2,0.4-2.2,0.4-2.9c0-1.7-0.5-3-1.4-4c-0.9-0.9-2.3-1.4-4-1.4c-1.7,0-3.1,0.4-4.3,1.2c-1.2,0.8-2.3,2-3.4,3.6l-3.6,16.8
			c-0.4,1.7-0.9,2.9-1.6,3.5c-0.7,0.7-1.7,1-2.9,1h-1c-1.3,0-2.5-0.3-3.4-0.9c-0.9-0.6-1.2-1.8-0.8-3.6l6.1-28.4
			c0-0.1,0.3-0.2,0.8-0.4c0.5-0.2,1.1-0.2,1.9-0.2c0.7,0,1.4,0.1,2,0.3c0.6,0.2,1.2,0.5,1.7,1c0.5,0.5,0.9,1,1.2,1.8
			C228.1,21.6,228.2,22.5,228.2,23.7"/>
		<g id="I" transform="translate(212.530120, 0.000000)">
			<path id="i-main" class="st0" d="M-6,51.7c-1.6,0-2.8-0.2-3.9-0.7c-1-0.5-1.8-1.1-2.3-1.9c-0.5-0.8-0.8-1.8-0.9-2.9
				c-0.1-1.1,0-2.3,0.3-3.7l4.4-20.2c0.4-1.7,0.9-2.9,1.6-3.6c0.7-0.7,1.7-1,2.9-1h1c0.6,0,1.3,0.1,1.9,0.2c0.6,0.1,1.1,0.4,1.5,0.7
				c0.4,0.4,0.7,0.8,0.9,1.4c0.2,0.6,0.1,1.3,0,2.2L-3,42.9c-0.4,1.8-0.4,3.2,0,4c0.4,0.8,1.3,1.3,2.7,1.5c-0.2,0.7-0.5,1.3-0.9,1.7
				c-0.4,0.4-1,0.8-1.7,1.1C-3.6,51.5-4.7,51.7-6,51.7"/>
			<path id="i-dot" class="st0" d="M-1.2,16.8c-1.7,0-3.1-0.4-4-1.1c-0.9-0.8-1.4-1.8-1.4-3c0-1.6,0.5-2.9,1.5-4
				c1-1.1,2.4-1.6,4.1-1.6c1.7,0,3.1,0.4,4,1.1C4,9,4.4,10,4.4,11.2c0,1.6-0.5,2.9-1.5,4C1.9,16.2,0.5,16.8-1.2,16.8"/>
		</g>
		<path id="p" class="st0" d="M182.3,29.3c2.8,0,5-0.6,6.4-1.9c1.4-1.2,2.2-3,2.2-5.3c0-2.3-0.7-4.1-2.2-5.3
			c-1.4-1.2-3.6-1.8-6.4-1.8h-6.7v14.3H182.3z M175.7,46.8c0,1.4-0.4,2.6-1.1,3.3c-0.7,0.8-1.8,1.2-3.3,1.2h-1.5
			c-1.3,0-2.4-0.4-3.1-1.1c-0.8-0.8-1.1-1.9-1.1-3.4V12.9c0-1.8,0.5-3.1,1.4-4.1c0.9-1,2.2-1.5,3.9-1.5h11.6c6,0,10.5,1.3,13.7,3.8
			c3.1,2.5,4.7,6.2,4.7,11c0,4.9-1.5,8.6-4.6,11c-3.1,2.5-7.6,3.7-13.7,3.7h-6.7V46.8z"/>
		<g id="O" transform="translate(110.567718, 0.710513)">
			<g id="O-Clip">
			</g>
			<defs>
				<filter id="Adobe_OpacityMaskFilter" filterUnits="userSpaceOnUse" x="6.1" y="5.7" width="45.9" height="45.5">
					<feColorMatrix  type="matrix" values="1 0 0 0 0  0 1 0 0 0  0 0 1 0 0  0 0 0 1 0"/>
				</filter>
			</defs>
			<mask maskUnits="userSpaceOnUse" x="6.1" y="5.7" width="45.9" height="45.5" id="mask-2_1_">
				<g class="st1">
					<polygon id="path-1_1_" class="st2" points="52,5.7 6.1,5.7 6.1,51.2 52,51.2 					"/>
				</g>
			</mask>
			<path id="O-Fill" class="st3" d="M29.1,42.4c1.9,0,3.7-0.3,5.2-1c1.6-0.7,2.9-1.6,4.1-2.8c1.1-1.2,2-2.7,2.7-4.4
				c0.6-1.7,0.9-3.6,0.9-5.7c0-2.1-0.3-4-1-5.7c-0.6-1.7-1.5-3.2-2.6-4.4c-1.1-1.2-2.5-2.2-4.1-2.9c-1.6-0.7-3.3-1-5.3-1
				c-1.9,0-3.7,0.3-5.2,1c-1.6,0.7-2.9,1.6-4,2.8c-1.1,1.2-2,2.7-2.6,4.4c-0.6,1.7-0.9,3.6-0.9,5.7c0,2.1,0.3,4,0.9,5.7
				c0.6,1.7,1.5,3.2,2.7,4.4c1.1,1.2,2.5,2.2,4.1,2.8C25.4,42,27.2,42.4,29.1,42.4 M29,51.2c-3.4,0-6.4-0.6-9.3-1.7
				c-2.8-1.1-5.2-2.7-7.3-4.7c-2-2-3.6-4.4-4.7-7.2c-1.1-2.8-1.7-5.9-1.7-9.2c0-3.3,0.6-6.4,1.7-9.2c1.1-2.8,2.7-5.2,4.8-7.2
				c2-2,4.5-3.6,7.3-4.7c2.8-1.1,5.9-1.7,9.2-1.7c3.4,0,6.5,0.6,9.3,1.7c2.8,1.1,5.2,2.7,7.2,4.7c2,2,3.6,4.4,4.7,7.2
				c1.1,2.8,1.7,5.8,1.7,9.2c0,3.3-0.6,6.4-1.7,9.2c-1.1,2.8-2.7,5.2-4.7,7.2c-2,2-4.5,3.6-7.3,4.7C35.5,50.6,32.4,51.2,29,51.2"/>
		</g>
		<path id="p_1_" class="st0" d="M95.8,29.3c2.8,0,5-0.6,6.4-1.9c1.4-1.2,2.2-3,2.2-5.3c0-2.3-0.7-4.1-2.2-5.3
			c-1.4-1.2-3.6-1.8-6.4-1.8h-6.7v14.3H95.8z M89.3,46.8c0,1.4-0.4,2.6-1.1,3.3c-0.7,0.8-1.8,1.2-3.3,1.2h-1.5
			c-1.3,0-2.4-0.4-3.1-1.1c-0.8-0.8-1.1-1.9-1.1-3.4V12.9c0-1.8,0.5-3.1,1.4-4.1c0.9-1,2.2-1.5,3.9-1.5H96c6,0,10.5,1.3,13.7,3.8
			c3.1,2.5,4.7,6.2,4.7,11c0,4.9-1.5,8.6-4.6,11c-3.1,2.5-7.6,3.7-13.7,3.7h-6.7V46.8z"/>
		<g id="POPin-Chat" transform="translate(0.000000, 1.459052)">
			<g id="Clip-15">
			</g>
			<defs>
				<filter id="Adobe_OpacityMaskFilter_1_" filterUnits="userSpaceOnUse" x="27.9" y="5.8" width="41.1" height="44">
					<feColorMatrix  type="matrix" values="1 0 0 0 0  0 1 0 0 0  0 0 1 0 0  0 0 0 1 0"/>
				</filter>
			</defs>
			<mask maskUnits="userSpaceOnUse" x="27.9" y="5.8" width="41.1" height="44" id="mask-4_1_">
				<g class="st4">
					<polygon id="path-3_1_" class="st2" points="27.9,5.8 27.9,49.8 68.9,49.8 68.9,5.8 					"/>
				</g>
			</mask>
			<path id="Fill-14" class="st5" d="M50.1,9.2c-5.1,0-9.8,1.9-13.3,5.4c-3.5,3.5-5.5,8.2-5.5,13.2c0,9.7,7.6,17.7,17.3,18.6v-5.3
				c0-0.9,0.8-1.7,1.7-1.7c8.5,0,15.1-6.6,15.1-15.1C65.5,16,58.6,9.2,50.1,9.2 M50.3,49.8c-12.4,0-22.5-9.9-22.5-22.1
				c0-5.9,2.3-11.4,6.5-15.6c4.2-4.2,9.8-6.4,15.8-6.4c10.4,0,18.8,8.3,18.8,18.5c0,4.9-1.9,9.6-5.4,13.1c-3.1,3.1-7.1,5-11.5,5.4
				v5.4C52.1,49.1,51.3,49.8,50.3,49.8"/>
		</g>
	</g>
</g>
</svg>
