<?xml version="1.0" encoding="utf-8"?>
<!-- Generator: Adobe Illustrator 22.0.1, SVG Export Plug-In . SVG Version: 6.00 Build 0)  -->
<svg version="1.1" id="Layer_1" xmlns="http://www.w3.org/2000/svg" xmlns:xlink="http://www.w3.org/1999/xlink" x="0px" y="0px"
	 viewBox="0 0 214.5 185.5" style="enable-background:new 0 0 214.5 185.5;" xml:space="preserve">
<style type="text/css">
	.st0{fill:#1DADB3;}
</style>
<g id="Page-1">
	<g id="POPin-_x28_Stacked_x29_" transform="translate(0.000000, -1.000000)">
		<path id="N" class="st0" d="M170.6,139.7c1.4-2,3-3.6,5-4.7c1.9-1.1,4.2-1.7,6.6-1.7c3.4,0,6.1,1,8,3s2.9,4.6,2.9,7.7
			c0,1.2-0.2,2.6-0.6,4.2c-0.4,1.6-0.9,3.4-1.4,5.4c-0.5,1.7-0.8,3.1-1.1,4.4c-0.3,1.3-0.5,2.2-0.5,2.9c0,1,0.2,1.6,0.7,2.1
			c0.5,0.4,1.1,0.7,2.1,0.9c0.1,0,0,0.2-0.1,0.6c-0.1,0.4-0.4,0.9-0.8,1.4c-0.4,0.5-1,1-1.8,1.4c-0.8,0.4-1.8,0.6-3.2,0.6
			c-2.3,0-4-0.6-5-1.6c-1-1-1.6-2.5-1.6-4.2c0-1,0.2-2.2,0.5-3.4c0.3-1.3,0.7-2.9,1.2-4.8c0.5-1.6,0.8-3,1.1-4.2
			c0.2-1.2,0.4-2.2,0.4-2.9c0-1.7-0.5-3-1.4-4c-1-1-2.3-1.4-4-1.4c-1.7,0-3.1,0.4-4.3,1.2c-1.2,0.8-2.3,2-3.4,3.6l-3.6,16.8
			c-0.4,1.7-0.9,2.9-1.6,3.5c-0.7,0.6-1.7,1-2.9,1h-1c-1.4,0-2.5-0.3-3.4-1c-0.9-0.6-1.2-1.8-0.8-3.6l6.2-28.4
			c0.1-0.1,0.3-0.2,0.8-0.4c0.5-0.2,1.1-0.2,1.9-0.2c0.7,0,1.4,0.1,2,0.3c0.6,0.2,1.2,0.6,1.7,1c0.5,0.5,0.9,1,1.2,1.8
			C170.4,137.6,170.6,138.5,170.6,139.7"/>
		<g id="I" transform="translate(148.530120, 129.000000)">
			<path id="i-main" class="st0" d="M0.4,38.7c-1.6,0-2.9-0.2-3.8-0.6c-1-0.5-1.8-1.1-2.2-1.9c-0.5-0.8-0.8-1.8-0.9-2.9
				c-0.1-1.1,0-2.3,0.3-3.7l4.4-20.2C-1.5,7.7-1,6.5-0.3,5.7c0.7-0.6,1.7-1,2.9-1h1c0.6,0,1.3,0.1,1.8,0.2C6.1,5.1,6.6,5.3,7,5.7
				C7.4,6,7.7,6.5,7.9,7.1c0.2,0.6,0.2,1.4,0,2.2L3.4,29.8C3,31.7,3,33,3.4,33.7c0.4,0.8,1.3,1.3,2.7,1.5C6,36,5.7,36.5,5.3,37
				c-0.4,0.4-1,0.8-1.8,1.1C2.7,38.5,1.7,38.7,0.4,38.7"/>
			<path id="i-dot" class="st0" d="M5.2,3.7c-1.8,0-3-0.4-4-1.1c-0.9-0.8-1.4-1.8-1.4-3c0-1.6,0.5-2.9,1.5-3.9s2.4-1.6,4.1-1.6
				c1.8,0,3,0.4,4,1.1c0.9,0.8,1.4,1.8,1.4,3c0,1.6-0.5,2.9-1.5,3.9C8.2,3.3,6.9,3.7,5.2,3.7"/>
		</g>
		<path id="p" class="st0" d="M124.6,145.4c2.9,0,5-0.6,6.4-1.8c1.4-1.2,2.2-3,2.2-5.3c0-2.3-0.7-4.1-2.2-5.3
			c-1.4-1.2-3.6-1.8-6.4-1.8h-6.6v14.2L124.6,145.4L124.6,145.4z M118.1,162.7c0,1.4-0.4,2.6-1.1,3.4c-0.7,0.8-1.8,1.2-3.3,1.2h-1.5
			c-1.4,0-2.4-0.4-3.1-1.1c-0.7-0.8-1.1-1.9-1.1-3.4v-33.9c0-1.8,0.5-3.1,1.4-4.1c1-1,2.2-1.4,3.9-1.4h11.6c6,0,10.6,1.3,13.7,3.8
			c3.1,2.5,4.7,6.2,4.7,11s-1.5,8.6-4.6,11c-3,2.5-7.6,3.7-13.7,3.7h-6.7v9.8H118.1z"/>
		<g id="O" transform="translate(46.567718, 129.710513)">
			<g id="O-Clip">
			</g>
			<path id="O-Fill" class="st0" d="M35.4,29.4c1.9,0,3.7-0.3,5.2-1s2.9-1.6,4.1-2.8c1.1-1.2,2-2.6,2.6-4.4c0.6-1.7,1-3.6,1-5.7
				s-0.3-4-1-5.7s-1.5-3.2-2.6-4.4c-1.1-1.2-2.5-2.2-4.1-2.9c-1.6-0.6-3.4-1-5.3-1c-1.9,0-3.7,0.3-5.2,1c-1.6,0.6-2.9,1.6-4,2.8
				c-1.1,1.2-2,2.6-2.6,4.4c-0.6,1.7-1,3.6-1,5.8c0,2.1,0.3,4,1,5.7c0.6,1.7,1.5,3.2,2.6,4.4c1.1,1.2,2.5,2.2,4.1,2.9
				C31.7,29,33.5,29.4,35.4,29.4 M35.4,38.2c-3.4,0-6.4-0.6-9.3-1.7c-2.8-1.1-5.3-2.6-7.3-4.6s-3.6-4.4-4.7-7.2s-1.7-5.8-1.7-9.2
				s0.6-6.4,1.8-9.2c1.1-2.8,2.7-5.2,4.8-7.2s4.5-3.6,7.3-4.7c2.8-1.1,5.8-1.7,9.2-1.7s6.5,0.6,9.3,1.7S50-2.9,52-0.9
				s3.6,4.4,4.7,7.2c1.1,2.8,1.7,5.8,1.7,9.1c0,3.4-0.6,6.4-1.7,9.2c-1.1,2.8-2.7,5.2-4.7,7.2c-2.1,2-4.5,3.6-7.3,4.7
				C41.9,37.6,38.8,38.2,35.4,38.2"/>
		</g>
		<path id="p_1_" class="st0" d="M38.2,145.4c2.9,0,5-0.6,6.4-1.8c1.4-1.2,2.2-3,2.2-5.3c0-2.3-0.7-4.1-2.2-5.3
			c-1.4-1.2-3.6-1.8-6.4-1.8h-6.6v14.2L38.2,145.4L38.2,145.4z M31.6,162.7c0,1.4-0.4,2.6-1.1,3.4c-0.7,0.8-1.8,1.2-3.3,1.2h-1.5
			c-1.4,0-2.4-0.4-3.1-1.1c-0.7-0.8-1.1-1.9-1.1-3.4v-33.9c0-1.8,0.5-3.1,1.4-4.1c1-1,2.2-1.4,3.9-1.4h11.6c6,0,10.6,1.3,13.7,3.8
			c3.1,2.5,4.7,6.2,4.7,11s-1.5,8.6-4.6,11c-3,2.5-7.7,3.7-13.7,3.7h-6.7v9.8H31.6z"/>
		<g id="POPin-Chat" transform="translate(46.000000, 0.459052)">
			<g id="Clip-15">
			</g>
			<path id="Fill-14" class="st0" d="M60.5,26.3c-11,0-21.3,4.2-29,11.8c-7.6,7.5-11.8,17.6-11.8,28.4c0,21,16.6,38.3,37.7,40.2
				V95.2c0-2,1.7-3.6,3.8-3.6C79.6,91.6,94,77.3,94,59C94,41,79,26.3,60.5,26.3 M61,114.1c-27,0-48.9-21.4-48.9-47.5
				c0-12.7,5-24.6,14-33.5c9.1-9,21.3-14,34.3-14c22.6,0,41,17.9,41,39.9c0,10.6-4.2,20.7-11.7,28.2c-6.7,6.7-15.4,10.7-25,11.6
				v11.7C64.8,112.4,63.1,114.1,61,114.1"/>
		</g>
	</g>
</g>
</svg>
