<?xml version="1.0" encoding="utf-8"?>
<!-- Generator: Adobe Illustrator 22.0.1, SVG Export Plug-In . SVG Version: 6.00 Build 0)  -->
<svg version="1.1" id="Layer_1" xmlns="http://www.w3.org/2000/svg" xmlns:xlink="http://www.w3.org/1999/xlink" x="0px" y="0px"
	 viewBox="0 0 52 56" style="enable-background:new 0 0 52 56;" xml:space="preserve">
<style type="text/css">
	.st0{filter:url(#Adobe_OpacityMaskFilter);}
	.st1{fill:#FFFFFF;}
	.st2{mask:url(#mask-2_1_);fill:#1DADB3;}
</style>
<g id="Page-1">
	<g id="POPin-Chat-Logo-Only">
		<g id="POPin-Chat">
			<g id="Clip-15">
			</g>
			<defs>
				<filter id="Adobe_OpacityMaskFilter" filterUnits="userSpaceOnUse" x="5.3" y="5.9" width="41.1" height="44">
					<feColorMatrix  type="matrix" values="1 0 0 0 0  0 1 0 0 0  0 0 1 0 0  0 0 0 1 0"/>
				</filter>
			</defs>
			<mask maskUnits="userSpaceOnUse" x="5.3" y="5.9" width="41.1" height="44" id="mask-2_1_">
				<g class="st0">
					<polygon id="path-1_1_" class="st1" points="5.3,5.9 5.3,49.9 46.3,49.9 46.3,5.9 					"/>
				</g>
			</mask>
			<path id="Fill-14" class="st2" d="M27.5,9.3c-5.1,0-9.8,1.9-13.3,5.4c-3.5,3.5-5.5,8.2-5.5,13.2c0,9.7,7.6,17.7,17.3,18.6v-5.3
				c0-0.9,0.8-1.7,1.7-1.7c8.5,0,15.1-6.6,15.1-15.1C42.9,16,36,9.3,27.5,9.3 M27.8,49.9C15.3,49.9,5.3,40,5.3,27.9
				c0-5.9,2.3-11.4,6.5-15.6c4.2-4.2,9.8-6.4,15.8-6.4c10.4,0,18.9,8.3,18.9,18.5c0,4.9-1.9,9.6-5.4,13.1c-3.1,3.1-7.1,5-11.5,5.4
				v5.4C29.5,49.2,28.7,49.9,27.8,49.9"/>
		</g>
	</g>
</g>
</svg>
