<?xml version="1.0" encoding="UTF-8" standalone="no"?>
<svg width="319px" height="352px" viewBox="0 0 319 352" version="1.1" xmlns="http://www.w3.org/2000/svg" xmlns:xlink="http://www.w3.org/1999/xlink">
    <!-- Generator: Sketch 42 (36781) - http://www.bohemiancoding.com/sketch -->
    <title>Shape</title>
    <desc>Created with Sketch.</desc>
    <defs></defs>
    <g id="Page-1" stroke="none" stroke-width="1" fill="none" fill-rule="evenodd">
        <path d="M174.98,6.25801494e-16 C128.35717,-0.20977934 83.6212263,18.3977484 50.9,51.61 C18.07,84.83 1.42108547e-14,129.24 1.42108547e-14,176.61 C1.42108547e-14,264.52 64.43,337.68 148.61,351.49 C151.831289,352.012872 155.119557,351.09301 157.601968,348.974583 C160.084379,346.856157 161.509848,343.753434 161.5,340.49 L161.5,303.04 C161.5,294.203444 168.663444,287.04 177.5,287.04 C256.5,287.04 318.5,224.04 318.5,143.52 C318.5,64.38 254.11,-1.35850532e-14 174.98,-1.35850532e-14" id="Shape" fill="#1EAEB2" fill-rule="nonzero"></path>
    </g>
</svg>