<svg version="1.1" id="Layer_1" xmlns="http://www.w3.org/2000/svg" xmlns:xlink="http://www.w3.org/1999/xlink" x="0px" y="0px"
	 viewBox="0 0 67.3 73.6">
<path fill="#1dadb3" d="M36.9,73.6C16.5,73.6,0,57,0,36.7c0-9.8,3.8-19.1,10.6-26C17.4,3.8,26.6,0,36.4,0c17,0,30.9,13.9,30.9,30.9
	c0,8.3-3.1,16-8.8,21.8c-5.1,5.2-11.7,8.3-18.8,8.9v9.1C39.7,72.3,38.4,73.6,36.9,73.6L36.9,73.6z M36.4,5.6
	c-8.3,0-16.1,3.2-21.8,9.1c-5.8,5.8-9,13.7-9,22c0,16.2,12.5,29.6,28.4,31.1V59c0-1.6,1.3-2.8,2.8-2.8c13.9,0,24.8-11.1,24.8-25.3
	C61.7,17,50.4,5.6,36.4,5.6L36.4,5.6z"/>
</svg>
