<?xml version="1.0" encoding="UTF-8" standalone="no"?>
<svg width="480px" height="112px" viewBox="0 0 480 112" version="1.1" xmlns="http://www.w3.org/2000/svg" xmlns:xlink="http://www.w3.org/1999/xlink">
    <!-- Generator: Sketch 40.2 (33826) - http://www.bohemiancoding.com/sketch -->
    <title>buyin-method-logo</title>
    <desc>Created with Sketch.</desc>
    <defs>
        <rect id="path-1" x="0" y="0" width="480" height="112"></rect>
        <mask id="mask-2" maskContentUnits="userSpaceOnUse" maskUnits="objectBoundingBox" x="0" y="0" width="480" height="112" fill="white">
            <use xlink:href="#path-1"></use>
        </mask>
    </defs>
    <g id="Mockups" stroke="none" stroke-width="1" fill="none" fill-rule="evenodd">
        <g id="EXPLORING-The-Method" transform="translate(-400.000000, -864.000000)">
            <g id="Group-31" transform="translate(400.000000, 864.000000)">
                <g id="Group-15">
                    <g id="buyin-method-logo">
                        <use id="Rectangle-19" stroke="#50E3DF" mask="url(#mask-2)" stroke-width="2.70512821" xlink:href="#path-1"></use>
                        <path d="M42.9781463,82.9174654 C42.9781463,84.192105 42.5158487,85.1860447 41.5912397,85.8993145 C40.6666307,86.6125843 39.4118231,86.9692138 37.8267791,86.9692138 C36.1096481,86.9692138 34.7887979,86.7479714 33.864189,86.30548 L33.864189,84.680818 C34.4585804,84.9317833 35.105797,85.1299109 35.8058581,85.2752066 C36.5059192,85.4205023 37.1993656,85.493149 37.8862179,85.493149 C39.0089574,85.493149 39.8543015,85.2801619 40.4222756,84.8541814 C40.9902497,84.4282008 41.2742325,83.8354693 41.2742325,83.075969 C41.2742325,82.5740384 41.1735177,82.1629238 40.972085,81.8426128 C40.7706524,81.5223019 40.4338356,81.2267616 39.9616245,80.9559833 C39.4894135,80.685205 38.7712012,80.3781073 37.8069661,80.0346811 C36.4596788,79.5525635 35.4971092,78.9812958 34.9192286,78.3208609 C34.341348,77.6604259 34.052412,76.7985711 34.052412,75.7352708 C34.052412,74.6191356 34.4717819,73.7308639 35.3105344,73.0704289 C36.1492868,72.4099939 37.2588009,72.0797814 38.6391101,72.0797814 C40.0788584,72.0797814 41.4030107,72.3439514 42.6116067,72.8722994 L42.0865635,74.3384578 C40.8911762,73.8365272 39.728828,73.5855656 38.5994842,73.5855656 C37.7078969,73.5855656 37.0111485,73.7770889 36.5092179,74.1601412 C36.0072873,74.5431935 35.7563257,75.0748357 35.7563257,75.7550837 C35.7563257,76.2570143 35.8487853,76.6681289 36.0337071,76.9884399 C36.2186289,77.3087509 36.5306797,77.6026401 36.969869,77.8701162 C37.4090582,78.1375924 38.0810408,78.4331326 38.9858367,78.7567458 C40.5048372,79.2983025 41.5499599,79.8794765 42.1212362,80.5002854 C42.6925124,81.1210943 42.9781463,81.9268129 42.9781463,82.9174654 L42.9781463,82.9174654 Z M57.8569312,72.2878174 L57.8569312,81.6593431 C57.8569312,83.3104305 57.3583103,84.6081658 56.3610535,85.5525879 C55.3637966,86.4970099 53.9934146,86.9692138 52.2498662,86.9692138 C50.5063178,86.9692138 49.1573996,86.4937078 48.203071,85.5426814 C47.2487424,84.591655 46.7715853,83.2840133 46.7715853,81.6197171 L46.7715853,72.2878174 L48.4556861,72.2878174 L48.4556861,81.7385949 C48.4556861,82.9471909 48.7858987,83.8750881 49.4463337,84.5223144 C50.1067686,85.1695407 51.0775935,85.493149 52.3588374,85.493149 C53.5806421,85.493149 54.5217479,85.1678897 55.1821829,84.5173612 C55.8426179,83.8668327 56.1728304,82.9339823 56.1728304,81.7187819 L56.1728304,72.2878174 L57.8569312,72.2878174 Z M64.354838,80.7479473 L64.354838,86.7710843 L62.6707372,86.7710843 L62.6707372,72.2878174 L66.6432338,72.2878174 C68.419804,72.2878174 69.7323988,72.6279363 70.5810578,73.3081843 C71.4297168,73.9884324 71.8540399,75.0120912 71.8540399,76.3791917 C71.8540399,78.2944532 70.883215,79.5888863 68.9415361,80.26253 L72.8744068,86.7710843 L70.8832053,86.7710843 L67.376313,80.7479473 L64.354838,80.7479473 Z M64.354838,79.3016019 L66.6630468,79.3016019 C67.8518298,79.3016019 68.7235909,79.0654999 69.2783563,78.5932889 C69.8331217,78.1210779 70.1105002,77.412772 70.1105002,76.46835 C70.1105002,75.5107192 69.8281685,74.820575 69.2634966,74.3978966 C68.6988247,73.9752182 67.7923912,73.7638822 66.5441691,73.7638822 L64.354838,73.7638822 L64.354838,79.3016019 Z M84.464242,72.2878174 L86.277127,72.2878174 L81.0564144,86.7710843 L79.3921266,86.7710843 L74.2011335,72.2878174 L75.9842991,72.2878174 L79.3128748,81.6593431 C79.6959271,82.7358521 79.9997226,83.7826259 80.2242705,84.7996957 C80.4620271,83.7297911 80.7724269,82.6632045 81.1554792,81.5999042 L84.464242,72.2878174 Z M97.3221059,86.7710843 L89.2483285,86.7710843 L89.2483285,72.2878174 L97.3221059,72.2878174 L97.3221059,73.7836951 L90.9324293,73.7836951 L90.9324293,78.449645 L96.9357534,78.449645 L96.9357534,79.9356163 L90.9324293,79.9356163 L90.9324293,85.2653001 L97.3221059,85.2653001 L97.3221059,86.7710843 Z M105.197013,79.5294508 L109.060538,72.2878174 L110.88333,72.2878174 L106.04897,81.1541128 L106.04897,86.7710843 L104.345056,86.7710843 L104.345056,81.2333646 L99.5206024,72.2878174 L101.363207,72.2878174 L105.197013,79.5294508 Z M122.027373,82.9174654 C122.027373,84.192105 121.565076,85.1860447 120.640467,85.8993145 C119.715858,86.6125843 118.46105,86.9692138 116.876006,86.9692138 C115.158875,86.9692138 113.838025,86.7479714 112.913416,86.30548 L112.913416,84.680818 C113.507808,84.9317833 114.155024,85.1299109 114.855085,85.2752066 C115.555146,85.4205023 116.248593,85.493149 116.935445,85.493149 C118.058185,85.493149 118.903529,85.2801619 119.471503,84.8541814 C120.039477,84.4282008 120.32346,83.8354693 120.32346,83.075969 C120.32346,82.5740384 120.222745,82.1629238 120.021312,81.8426128 C119.819879,81.5223019 119.483063,81.2267616 119.010852,80.9559833 C118.538641,80.685205 117.820428,80.3781073 116.856193,80.0346811 C115.508906,79.5525635 114.546336,78.9812958 113.968456,78.3208609 C113.390575,77.6604259 113.101639,76.7985711 113.101639,75.7352708 C113.101639,74.6191356 113.521009,73.7308639 114.359761,73.0704289 C115.198514,72.4099939 116.308028,72.0797814 117.688337,72.0797814 C119.128085,72.0797814 120.452238,72.3439514 121.660834,72.8722994 L121.135791,74.3384578 C119.940403,73.8365272 118.778055,73.5855656 117.648711,73.5855656 C116.757124,73.5855656 116.060376,73.7770889 115.558445,74.1601412 C115.056514,74.5431935 114.805553,75.0748357 114.805553,75.7550837 C114.805553,76.2570143 114.898012,76.6681289 115.082934,76.9884399 C115.267856,77.3087509 115.579907,77.6026401 116.019096,77.8701162 C116.458285,78.1375924 117.130268,78.4331326 118.035064,78.7567458 C119.554064,79.2983025 120.599187,79.8794765 121.170463,80.5002854 C121.74174,81.1210943 122.027373,81.9268129 122.027373,82.9174654 L122.027373,82.9174654 Z M136.677568,86.7710843 L134.993468,86.7710843 L134.993468,73.7836951 L130.406769,73.7836951 L130.406769,72.2878174 L141.264266,72.2878174 L141.264266,73.7836951 L136.677568,73.7836951 L136.677568,86.7710843 Z M152.497468,86.7710843 L144.423691,86.7710843 L144.423691,72.2878174 L152.497468,72.2878174 L152.497468,73.7836951 L146.107792,73.7836951 L146.107792,78.449645 L152.111116,78.449645 L152.111116,79.9356163 L146.107792,79.9356163 L146.107792,85.2653001 L152.497468,85.2653001 L152.497468,86.7710843 Z M156.687167,86.7710843 L156.687167,72.2878174 L158.371267,72.2878174 L158.371267,85.2454871 L164.760944,85.2454871 L164.760944,86.7710843 L156.687167,86.7710843 Z M168.19775,86.7710843 L168.19775,72.2878174 L169.881851,72.2878174 L169.881851,85.2454871 L176.271527,85.2454871 L176.271527,86.7710843 L168.19775,86.7710843 Z M198.599241,86.7710843 L196.934953,86.7710843 L194.012543,77.072645 C193.873851,76.6433622 193.718651,76.1018136 193.546938,75.447983 C193.375225,74.7941524 193.286068,74.4011994 193.279463,74.2691124 C193.134168,75.1408866 192.903019,76.0952009 192.58601,77.1320838 L189.752758,86.7710843 L188.08847,86.7710843 L184.234851,72.2878174 L186.018017,72.2878174 L188.306413,81.2333646 C188.623422,82.4881911 188.85457,83.6241222 188.999866,84.6411921 C189.178183,83.4325961 189.442354,82.2504352 189.792384,81.094674 L192.387881,72.2878174 L194.171046,72.2878174 L196.895327,81.1739258 C197.212336,82.1976 197.479808,83.3533439 197.697751,84.6411921 C197.823234,83.7033744 198.060987,82.560839 198.411018,81.2135517 L200.689507,72.2878174 L202.472673,72.2878174 L198.599241,86.7710843 Z M216.717443,86.7710843 L215.033342,86.7710843 L215.033342,79.9554293 L207.405356,79.9554293 L207.405356,86.7710843 L205.721255,86.7710843 L205.721255,72.2878174 L207.405356,72.2878174 L207.405356,78.449645 L215.033342,78.449645 L215.033342,72.2878174 L216.717443,72.2878174 L216.717443,86.7710843 Z M230.773991,86.7710843 L228.971012,82.1645733 L223.165817,82.1645733 L221.382652,86.7710843 L219.678738,86.7710843 L225.404681,72.2283785 L226.821307,72.2283785 L232.51753,86.7710843 L230.773991,86.7710843 Z M228.445969,80.6488826 L226.761868,76.1612492 C226.543924,75.5932751 226.31938,74.8965267 226.088228,74.0709829 C225.942932,74.7050005 225.734898,75.401749 225.46412,76.1612492 L223.760206,80.6488826 L228.445969,80.6488826 Z M238.53002,86.7710843 L236.845919,86.7710843 L236.845919,73.7836951 L232.259221,73.7836951 L232.259221,72.2878174 L243.116718,72.2878174 L243.116718,73.7836951 L238.53002,73.7836951 L238.53002,86.7710843 Z M244.572229,85.7209979 C244.572229,85.2785065 244.672943,84.9433408 244.874376,84.7154907 C245.075809,84.4876406 245.364745,84.3737173 245.741193,84.3737173 C246.124245,84.3737173 246.423087,84.4876406 246.637729,84.7154907 C246.85237,84.9433408 246.959689,85.2785065 246.959689,85.7209979 C246.959689,86.1502807 246.850719,86.4804932 246.632776,86.7116455 C246.414832,86.9427977 246.117641,87.0583721 245.741193,87.0583721 C245.404371,87.0583721 245.125341,86.9543552 244.904096,86.7463181 C244.68285,86.5382811 244.572229,86.1965111 244.572229,85.7209979 L244.572229,85.7209979 Z M266.870223,76.5079759 C266.870223,77.9741415 266.369951,79.1018174 265.369392,79.8910372 C264.368833,80.680257 262.937361,81.074861 261.074935,81.074861 L259.371021,81.074861 L259.371021,86.7710843 L257.68692,86.7710843 L257.68692,72.2878174 L261.441474,72.2878174 C265.060658,72.2878174 266.870223,73.6945228 266.870223,76.5079759 L266.870223,76.5079759 Z M259.371021,79.6285156 L260.886711,79.6285156 C262.379295,79.6285156 263.45909,79.3874604 264.126129,78.9053429 C264.793168,78.4232254 265.126683,77.650528 265.126683,76.5872277 C265.126683,75.6295969 264.812981,74.9163378 264.185568,74.447429 C263.558155,73.9785201 262.580725,73.7440692 261.253251,73.7440692 L259.371021,73.7440692 L259.371021,79.6285156 Z M283.452921,79.5096379 C283.452921,81.8277647 282.866794,83.650538 281.694522,84.9780123 C280.52225,86.3054866 278.892651,86.9692138 276.805676,86.9692138 C274.672471,86.9692138 273.026362,86.3170441 271.867298,85.012685 C270.708235,83.7083258 270.128712,81.8673909 270.128712,79.4898249 C270.128712,77.132072 270.709886,75.3043456 271.872252,74.0065908 C273.034617,72.7088361 274.68568,72.0599684 276.825489,72.0599684 C278.90586,72.0599684 280.530505,72.7203935 281.699475,74.0412635 C282.868445,75.3621335 283.452921,77.1849067 283.452921,79.5096379 L283.452921,79.5096379 Z M271.911878,79.5096379 C271.911878,81.4711298 272.329596,82.9587373 273.165047,83.972505 C274.000497,84.9862728 275.214028,85.493149 276.805676,85.493149 C278.410533,85.493149 279.622413,84.9879238 280.441353,83.9774583 C281.260292,82.9669927 281.669756,81.4777342 281.669756,79.5096379 C281.669756,77.5613547 281.261943,76.0836535 280.446306,75.0764902 C279.630669,74.0693268 278.423742,73.5657527 276.825489,73.5657527 C275.220632,73.5657527 274.000497,74.0726289 273.165047,75.0863966 C272.329596,76.1001644 271.911878,77.5745634 271.911878,79.5096379 L271.911878,79.5096379 Z M296.845735,76.5079759 C296.845735,77.9741415 296.345463,79.1018174 295.344904,79.8910372 C294.344345,80.680257 292.912874,81.074861 291.050447,81.074861 L289.346533,81.074861 L289.346533,86.7710843 L287.662432,86.7710843 L287.662432,72.2878174 L291.416986,72.2878174 C295.03617,72.2878174 296.845735,73.6945228 296.845735,76.5079759 L296.845735,76.5079759 Z M289.346533,79.6285156 L290.862224,79.6285156 C292.354807,79.6285156 293.434602,79.3874604 294.101641,78.9053429 C294.768681,78.4232254 295.102195,77.650528 295.102195,76.5872277 C295.102195,75.6295969 294.788493,74.9163378 294.16108,74.447429 C293.533667,73.9785201 292.556238,73.7440692 291.228763,73.7440692 L289.346533,73.7440692 L289.346533,79.6285156 Z M300.857116,86.7710843 L300.857116,72.2878174 L302.541217,72.2878174 L302.541217,86.7710843 L300.857116,86.7710843 Z M318.806909,86.7710843 L316.885053,86.7710843 L308.969779,74.6158391 L308.890527,74.6158391 C308.996197,76.0423787 309.049031,77.3500203 309.049031,78.5388033 L309.049031,86.7710843 L307.493714,86.7710843 L307.493714,72.2878174 L309.395757,72.2878174 L317.291218,84.3935303 L317.37047,84.3935303 C317.357261,84.2152128 317.327542,83.642294 317.281312,82.6747568 C317.235081,81.7072195 317.21857,81.0154242 317.231779,80.5993502 L317.231779,72.2878174 L318.806909,72.2878174 L318.806909,86.7710843 Z M334.477471,86.7710843 L332.79337,86.7710843 L332.79337,73.7836951 L328.206672,73.7836951 L328.206672,72.2878174 L339.064169,72.2878174 L339.064169,73.7836951 L334.477471,73.7836951 L334.477471,86.7710843 Z M350.297371,86.7710843 L342.223593,86.7710843 L342.223593,72.2878174 L350.297371,72.2878174 L350.297371,73.7836951 L343.907694,73.7836951 L343.907694,78.449645 L349.911018,78.449645 L349.911018,79.9356163 L343.907694,79.9356163 L343.907694,85.2653001 L350.297371,85.2653001 L350.297371,86.7710843 Z M354.487069,86.7710843 L354.487069,72.2878174 L356.17117,72.2878174 L356.17117,85.2454871 L362.560846,85.2454871 L362.560846,86.7710843 L354.487069,86.7710843 Z M365.997652,86.7710843 L365.997652,72.2878174 L367.681753,72.2878174 L367.681753,85.2454871 L374.07143,85.2454871 L374.07143,86.7710843 L365.997652,86.7710843 Z M385.681078,82.9174654 C385.681078,84.192105 385.21878,85.1860447 384.294171,85.8993145 C383.369562,86.6125843 382.114754,86.9692138 380.52971,86.9692138 C378.812579,86.9692138 377.491729,86.7479714 376.56712,86.30548 L376.56712,84.680818 C377.161512,84.9317833 377.808728,85.1299109 378.508789,85.2752066 C379.208851,85.4205023 379.902297,85.493149 380.589149,85.493149 C381.711889,85.493149 382.557233,85.2801619 383.125207,84.8541814 C383.693181,84.4282008 383.977164,83.8354693 383.977164,83.075969 C383.977164,82.5740384 383.876449,82.1629238 383.675016,81.8426128 C383.473584,81.5223019 383.136767,81.2267616 382.664556,80.9559833 C382.192345,80.685205 381.474133,80.3781073 380.509898,80.0346811 C379.16261,79.5525635 378.200041,78.9812958 377.62216,78.3208609 C377.044279,77.6604259 376.755343,76.7985711 376.755343,75.7352708 C376.755343,74.6191356 377.174713,73.7308639 378.013466,73.0704289 C378.852218,72.4099939 379.961732,72.0797814 381.342041,72.0797814 C382.78179,72.0797814 384.105942,72.3439514 385.314538,72.8722994 L384.789495,74.3384578 C383.594108,73.8365272 382.431759,73.5855656 381.302416,73.5855656 C380.410828,73.5855656 379.71408,73.7770889 379.212149,74.1601412 C378.710219,74.5431935 378.459257,75.0748357 378.459257,75.7550837 C378.459257,76.2570143 378.551717,76.6681289 378.736638,76.9884399 C378.92156,77.3087509 379.233611,77.6026401 379.6728,77.8701162 C380.11199,78.1375924 380.783972,78.4331326 381.688768,78.7567458 C383.207769,79.2983025 384.252891,79.8794765 384.824168,80.5002854 C385.395444,81.1210943 385.681078,81.9268129 385.681078,82.9174654 L385.681078,82.9174654 Z M408.514021,86.7710843 L406.849733,86.7710843 L403.927323,77.072645 C403.788632,76.6433622 403.633432,76.1018136 403.461719,75.447983 C403.290006,74.7941524 403.200848,74.4011994 403.194244,74.2691124 C403.048948,75.1408866 402.8178,76.0952009 402.500791,77.1320838 L399.667539,86.7710843 L398.003251,86.7710843 L394.149632,72.2878174 L395.932798,72.2878174 L398.221193,81.2333646 C398.538202,82.4881911 398.769351,83.6241222 398.914647,84.6411921 C399.092964,83.4325961 399.357134,82.2504352 399.707165,81.094674 L402.302661,72.2878174 L404.085827,72.2878174 L406.810108,81.1739258 C407.127116,82.1976 407.394588,83.3533439 407.612532,84.6411921 C407.738015,83.7033744 407.975768,82.560839 408.325798,81.2135517 L410.604288,72.2878174 L412.387453,72.2878174 L408.514021,86.7710843 Z M426.632224,86.7710843 L424.948123,86.7710843 L424.948123,79.9554293 L417.320137,79.9554293 L417.320137,86.7710843 L415.636036,86.7710843 L415.636036,72.2878174 L417.320137,72.2878174 L417.320137,78.449645 L424.948123,78.449645 L424.948123,72.2878174 L426.632224,72.2878174 L426.632224,86.7710843 Z M435.269929,79.5294508 L439.133455,72.2878174 L440.956246,72.2878174 L436.121886,81.1541128 L436.121886,86.7710843 L434.417972,86.7710843 L434.417972,81.2333646 L429.593519,72.2878174 L431.436123,72.2878174 L435.269929,79.5294508 Z" id="SURVEYS-TELL-WHAT.-P" fill="#008F95"></path>
                        <path d="M42.6028176,55.2409639 L39.9082563,55.2409639 L39.9082563,34.4611411 L32.5695394,34.4611411 L32.5695394,32.0677367 L49.9415346,32.0677367 L49.9415346,34.4611411 L42.6028176,34.4611411 L42.6028176,55.2409639 Z M76.5225141,55.2409639 L73.8279528,55.2409639 L73.8279528,44.3359158 L61.6231752,44.3359158 L61.6231752,55.2409639 L58.9286139,55.2409639 L58.9286139,32.0677367 L61.6231752,32.0677367 L61.6231752,41.926661 L73.8279528,41.926661 L73.8279528,32.0677367 L76.5225141,32.0677367 L76.5225141,55.2409639 Z M101.296553,55.2409639 L88.3785087,55.2409639 L88.3785087,32.0677367 L101.296553,32.0677367 L101.296553,34.4611411 L91.07307,34.4611411 L91.07307,41.926661 L100.678389,41.926661 L100.678389,44.3042151 L91.07307,44.3042151 L91.07307,52.831709 L101.296553,52.831709 L101.296553,55.2409639 Z M125.864461,32.0677367 L132.41066,32.0677367 C135.485646,32.0677367 137.709957,32.5273926 139.083662,33.4467181 C140.457367,34.3660436 141.144209,35.8189788 141.144209,37.8055672 C141.144209,39.179272 140.761162,40.3125615 139.995058,41.2054696 C139.228953,42.0983777 138.111514,42.6769101 136.642706,42.941084 L136.642706,43.0995877 C140.161504,43.7019044 141.920877,45.5510946 141.920877,48.6472139 C141.920877,50.718338 141.220826,52.3350586 139.820704,53.4974242 C138.420582,54.6597898 136.463082,55.2409639 133.948145,55.2409639 L125.864461,55.2409639 L125.864461,32.0677367 Z M128.559023,41.9900624 L132.997124,41.9900624 C134.899176,41.9900624 136.267577,41.6915503 137.102367,41.094517 C137.937157,40.4974838 138.354545,39.490996 138.354545,38.0750234 C138.354545,36.7752873 137.889606,35.8374837 136.959714,35.2615843 C136.029821,34.685685 134.550469,34.3977397 132.521613,34.3977397 L128.559023,34.3977397 L128.559023,41.9900624 Z M128.559023,44.2725143 L128.559023,52.9426616 L133.393383,52.9426616 C135.263734,52.9426616 136.671761,52.5807486 137.617504,51.8569119 C138.563247,51.1330751 139.036111,49.9997857 139.036111,48.4570095 C139.036111,47.019903 138.55268,45.9632228 137.585803,45.2869374 C136.618926,44.610652 135.147499,44.2725143 133.171477,44.2725143 L128.559023,44.2725143 Z M169.896688,32.0677367 L169.896688,47.0621778 C169.896688,49.7039178 169.098894,51.7802942 167.503283,53.2913695 C165.907672,54.8024448 163.715061,55.5579711 160.925384,55.5579711 C158.135706,55.5579711 155.977437,54.7971614 154.450511,53.2755191 C152.923586,51.7538769 152.160134,49.6616502 152.160134,46.9987764 L152.160134,32.0677367 L154.854696,32.0677367 L154.854696,47.1889807 C154.854696,49.1227343 155.383036,50.6073699 156.439732,51.642932 C157.496428,52.6784941 159.049747,53.1962673 161.099738,53.1962673 C163.054625,53.1962673 164.560394,52.6758524 165.61709,51.6350068 C166.673786,50.5941613 167.202127,49.1016006 167.202127,47.15728 L167.202127,32.0677367 L169.896688,32.0677367 Z M187.427112,43.6543503 L193.608752,32.0677367 L196.525218,32.0677367 L188.790243,46.2538094 L188.790243,55.2409639 L186.06398,55.2409639 L186.06398,46.3806123 L178.344855,32.0677367 L181.293022,32.0677367 L187.427112,43.6543503 Z M203.356649,47.7437433 L203.356649,45.3344885 L211.139176,45.3344885 L211.139176,47.7437433 L203.356649,47.7437433 Z M221.156529,55.2409639 L221.156529,32.0677367 L223.85109,32.0677367 L223.85109,55.2409639 L221.156529,55.2409639 Z M253.808196,55.2409639 L250.733226,55.2409639 L238.068788,35.7925714 L237.941985,35.7925714 C238.111057,38.0750348 238.195591,40.1672614 238.195591,42.0693142 L238.195591,55.2409639 L235.707084,55.2409639 L235.707084,32.0677367 L238.750354,32.0677367 L251.383091,51.4368773 L251.509894,51.4368773 C251.48876,51.1515694 251.441209,50.2348994 251.367241,48.6868398 C251.293272,47.1387801 251.266855,46.0319077 251.287989,45.3661892 L251.287989,32.0677367 L253.808196,32.0677367 L253.808196,55.2409639 Z M289.867616,55.2409639 L282.005837,34.6988965 L281.879035,34.6988965 C282.026972,36.3262084 282.10094,38.259933 282.10094,40.5001285 L282.10094,55.2409639 L279.612433,55.2409639 L279.612433,32.0677367 L283.670125,32.0677367 L291.008842,51.1832715 L291.135645,51.1832715 L298.537764,32.0677367 L302.563755,32.0677367 L302.563755,55.2409639 L299.869194,55.2409639 L299.869194,40.3099242 C299.869194,38.5980767 299.943161,36.7383196 300.091099,34.7305973 L299.964296,34.7305973 L292.039116,55.2409639 L289.867616,55.2409639 Z M327.337794,55.2409639 L314.41975,55.2409639 L314.41975,32.0677367 L327.337794,32.0677367 L327.337794,34.4611411 L317.114311,34.4611411 L317.114311,41.926661 L326.71963,41.926661 L326.71963,44.3042151 L317.114311,44.3042151 L317.114311,52.831709 L327.337794,52.831709 L327.337794,55.2409639 Z M345.105973,55.2409639 L342.411411,55.2409639 L342.411411,34.4611411 L335.072694,34.4611411 L335.072694,32.0677367 L352.44469,32.0677367 L352.44469,34.4611411 L345.105973,34.4611411 L345.105973,55.2409639 Z M379.025669,55.2409639 L376.331108,55.2409639 L376.331108,44.3359158 L364.12633,44.3359158 L364.12633,55.2409639 L361.431769,55.2409639 L361.431769,32.0677367 L364.12633,32.0677367 L364.12633,41.926661 L376.331108,41.926661 L376.331108,32.0677367 L379.025669,32.0677367 L379.025669,55.2409639 Z M410.995771,43.6226496 C410.995771,47.3316525 410.057968,50.2480897 408.182332,52.3720486 C406.306697,54.4960075 403.699339,55.5579711 400.360179,55.5579711 C396.947051,55.5579711 394.313276,54.5144994 392.458775,52.4275249 C390.604273,50.3405503 389.677036,47.3950544 389.677036,43.5909488 C389.677036,39.8185442 390.606915,36.8941819 392.4667,34.8177743 C394.326485,32.7413666 396.968185,31.7031784 400.39188,31.7031784 C403.720472,31.7031784 406.319906,32.7598585 408.190258,34.8732505 C410.060609,36.9866425 410.995771,39.9030797 410.995771,43.6226496 L410.995771,43.6226496 Z M392.530101,43.6226496 C392.530101,46.7610366 393.198451,49.1412086 394.535172,50.763237 C395.871892,52.3852653 397.813542,53.1962673 400.360179,53.1962673 C402.927951,53.1962673 404.866959,52.387907 406.177262,50.7711622 C407.487565,49.1544173 408.142706,46.7716036 408.142706,43.6226496 C408.142706,40.5053964 407.490206,38.1410746 406.185187,36.5296132 C404.880167,34.9181518 402.949084,34.1124332 400.39188,34.1124332 C397.824109,34.1124332 395.871892,34.9234352 394.535172,36.5454636 C393.198451,38.1674919 392.530101,40.5265303 392.530101,43.6226496 L392.530101,43.6226496 Z M440.16036,43.4324452 C440.16036,47.2576847 439.122171,50.182047 437.045764,52.2056198 C434.969356,54.2291926 431.981593,55.2409639 428.082385,55.2409639 L421.662989,55.2409639 L421.662989,32.0677367 L428.76395,32.0677367 C432.367284,32.0677367 435.167486,33.0662994 437.164642,35.0634548 C439.161797,37.0606103 440.16036,39.8502458 440.16036,43.4324452 L440.16036,43.4324452 Z M437.307295,43.5275474 C437.307295,40.5053969 436.549127,38.2282512 435.032768,36.696042 C433.516409,35.1638328 431.263039,34.3977397 428.272589,34.3977397 L424.35755,34.3977397 L424.35755,52.9109609 L427.638575,52.9109609 C430.850931,52.9109609 433.265445,52.1210924 434.88219,50.5413319 C436.498934,48.9615714 437.307295,46.6236666 437.307295,43.5275474 L437.307295,43.5275474 Z" id="THE-BUY-IN-METHOD" fill="#4A4A4A"></path>
                    </g>
                </g>
            </g>
        </g>
    </g>
</svg>