<?xml version="1.0" encoding="UTF-8" standalone="no"?>
<svg width="480px" height="112px" viewBox="0 0 480 112" version="1.1" xmlns="http://www.w3.org/2000/svg" xmlns:xlink="http://www.w3.org/1999/xlink">
    <!-- Generator: Sketch 41.2 (35397) - http://www.bohemiancoding.com/sketch -->
    <title>Group 31 Copy</title>
    <desc>Created with Sketch.</desc>
    <defs>
        <rect id="path-1" x="0" y="0" width="480" height="112"></rect>
        <mask id="mask-2" maskContentUnits="userSpaceOnUse" maskUnits="objectBoundingBox" x="0" y="0" width="480" height="112" fill="white">
            <use xlink:href="#path-1"></use>
        </mask>
    </defs>
    <g id="Mockups" stroke="none" stroke-width="1" fill="none" fill-rule="evenodd">
        <g id="Group-31-Copy">
            <g id="Group-15">
                <use id="Rectangle-19" stroke="#50E3DF" mask="url(#mask-2)" stroke-width="2.70512821" xlink:href="#path-1"></use>
                <path d="M48.1005671,87 L46.2743953,87 L46.2743953,72.9169922 L41.3007625,72.9169922 L41.3007625,71.2949219 L53.0742,71.2949219 L53.0742,72.9169922 L48.1005671,72.9169922 L48.1005671,87 Z M69.6468561,71.2949219 L69.6468561,81.4570312 C69.6468561,83.2474048 69.1061714,84.6546173 68.0247858,85.6787109 C66.9434002,86.7028046 65.4574124,87.2148438 63.566778,87.2148438 C61.6761435,87.2148438 60.2134303,86.6992239 59.1785944,85.6679688 C58.1437585,84.6367136 57.6263483,83.218759 57.6263483,81.4140625 L57.6263483,71.2949219 L59.4525202,71.2949219 L59.4525202,81.5429688 C59.4525202,82.8535222 59.8105895,83.859697 60.5267389,84.5615234 C61.2428883,85.2633499 62.2956122,85.6142578 63.684942,85.6142578 C65.0098185,85.6142578 66.0303161,85.2615595 66.7464655,84.5561523 C67.4626149,83.8507452 67.8206842,82.8391993 67.8206842,81.5214844 L67.8206842,71.2949219 L69.6468561,71.2949219 Z M77.9802545,80.46875 L77.9802545,87 L76.1540826,87 L76.1540826,71.2949219 L80.4616998,71.2949219 C82.3881417,71.2949219 83.8114673,71.6637333 84.7317193,72.4013672 C85.6519713,73.1390011 86.1120904,74.249016 86.1120904,75.7314453 C86.1120904,77.8082786 85.0593665,79.2119104 82.9538873,79.9423828 L87.2185357,87 L85.059356,87 L81.2566216,80.46875 L77.9802545,80.46875 Z M77.9802545,78.9003906 L80.4831841,78.9003906 C81.7722531,78.9003906 82.7175561,78.644371 83.3191216,78.1323242 C83.9206871,77.6202774 84.2214654,76.8522187 84.2214654,75.828125 C84.2214654,74.7897083 83.9153161,74.0413434 83.3030084,73.5830078 C82.6907006,73.1246722 81.7078003,72.8955078 80.3542779,72.8955078 L77.9802545,72.8955078 L77.9802545,78.9003906 Z M104.37127,87 L102.287286,87 L93.7042778,73.8193359 L93.6183403,73.8193359 C93.7329242,75.3662187 93.7902153,76.7841732 93.7902153,78.0732422 L93.7902153,87 L92.1036919,87 L92.1036919,71.2949219 L94.1661919,71.2949219 L102.727715,84.421875 L102.813653,84.421875 C102.79933,84.2285147 102.767104,83.6072644 102.716973,82.5581055 C102.666843,81.5089466 102.648939,80.7587913 102.663262,80.3076172 L102.663262,71.2949219 L104.37127,71.2949219 L104.37127,87 Z M111.039629,87 L111.039629,71.2949219 L112.865801,71.2949219 L112.865801,87 L111.039629,87 Z M131.790996,87 L129.707012,87 L121.124004,73.8193359 L121.038067,73.8193359 C121.152651,75.3662187 121.209942,76.7841732 121.209942,78.0732422 L121.209942,87 L119.523418,87 L119.523418,71.2949219 L121.585918,71.2949219 L130.147442,84.421875 L130.233379,84.421875 C130.219056,84.2285147 130.18683,83.6072644 130.136699,82.5581055 C130.086569,81.5089466 130.068666,80.7587913 130.082989,80.3076172 L130.082989,71.2949219 L131.790996,71.2949219 L131.790996,87 Z M145.366582,78.7714844 L150.705449,78.7714844 L150.705449,86.4091797 C149.874716,86.674155 149.029672,86.8746738 148.170293,87.0107422 C147.310914,87.1468106 146.315481,87.2148438 145.183965,87.2148438 C142.806349,87.2148438 140.95513,86.5076568 139.630254,85.0932617 C138.305378,83.6788666 137.642949,81.6969529 137.642949,79.1474609 C137.642949,77.5146403 137.970583,76.0841533 138.62586,74.855957 C139.281136,73.6277608 140.224649,72.6896191 141.456426,72.0415039 C142.688203,71.3933887 144.131222,71.0693359 145.785528,71.0693359 C147.461317,71.0693359 149.022499,71.3772756 150.469121,71.9931641 L149.760137,73.6044922 C148.342161,73.0029267 146.977917,72.7021484 145.667363,72.7021484 C143.755245,72.7021484 142.262095,73.2714787 141.187871,74.4101562 C140.113647,75.5488338 139.576543,77.1279196 139.576543,79.1474609 C139.576543,81.2672632 140.093953,82.8749945 141.128789,83.9707031 C142.163625,85.0664117 143.683629,85.6142578 145.688848,85.6142578 C146.777395,85.6142578 147.840861,85.4889335 148.879278,85.2382812 L148.879278,80.4042969 L145.366582,80.4042969 L145.366582,78.7714844 Z M164.890801,87 L164.890801,71.2949219 L166.716973,71.2949219 L166.716973,85.3457031 L173.645684,85.3457031 L173.645684,87 L164.890801,87 Z M187.414629,87 L178.659746,87 L178.659746,71.2949219 L187.414629,71.2949219 L187.414629,72.9169922 L180.485918,72.9169922 L180.485918,77.9765625 L186.995683,77.9765625 L186.995683,79.5878906 L180.485918,79.5878906 L180.485918,85.3671875 L187.414629,85.3671875 L187.414629,87 Z M203.117168,87 L201.16209,82.0048828 L194.867168,82.0048828 L192.933574,87 L191.085918,87 L197.294902,71.2304688 L198.831035,71.2304688 L205.007793,87 L203.117168,87 Z M200.592754,80.3613281 L198.766582,75.4951172 C198.530253,74.8792287 198.286765,74.1237024 198.036113,73.2285156 C197.87856,73.9160191 197.652977,74.6715454 197.359355,75.4951172 L195.511699,80.3613281 L200.592754,80.3613281 Z M222.053105,78.9970703 C222.053105,81.5895312 221.349499,83.571445 219.942265,84.9428711 C218.535032,86.3142972 216.51015,87 213.867558,87 L209.516972,87 L209.516972,71.2949219 L214.329472,71.2949219 C216.771542,71.2949219 218.669309,71.9716729 220.022832,73.3251953 C221.376354,74.6787177 222.053105,76.5693238 222.053105,78.9970703 Z M220.119511,79.0615234 C220.119511,77.0133361 219.605682,75.4700573 218.578008,74.4316406 C217.550333,73.393224 216.023167,72.8740234 213.996465,72.8740234 L211.343144,72.8740234 L211.343144,85.4208984 L213.566777,85.4208984 C215.743871,85.4208984 217.380248,84.8855848 218.475957,83.8149414 C219.571665,82.744298 220.119511,81.1598412 220.119511,79.0615234 Z M236.659941,87 L227.905058,87 L227.905058,71.2949219 L236.659941,71.2949219 L236.659941,72.9169922 L229.73123,72.9169922 L229.73123,77.9765625 L236.240996,77.9765625 L236.240996,79.5878906 L229.73123,79.5878906 L229.73123,85.3671875 L236.659941,85.3671875 L236.659941,87 Z M244.316582,80.46875 L244.316582,87 L242.49041,87 L242.49041,71.2949219 L246.798027,71.2949219 C248.724469,71.2949219 250.147794,71.6637333 251.068046,72.4013672 C251.988298,73.1390011 252.448417,74.249016 252.448417,75.7314453 C252.448417,77.8082786 251.395694,79.2119104 249.290214,79.9423828 L253.554863,87 L251.395683,87 L247.592949,80.46875 L244.316582,80.46875 Z M244.316582,78.9003906 L246.819511,78.9003906 C248.10858,78.9003906 249.053883,78.644371 249.655449,78.1323242 C250.257014,77.6202774 250.557792,76.8522187 250.557792,75.828125 C250.557792,74.7897083 250.251643,74.0413434 249.639335,73.5830078 C249.027028,73.1246722 248.044127,72.8955078 246.690605,72.8955078 L244.316582,72.8955078 L244.316582,78.9003906 Z M267.302324,82.8212891 C267.302324,84.2034574 266.801027,85.2812461 265.798417,86.0546875 C264.795808,86.8281289 263.435145,87.2148438 261.716386,87.2148438 C259.854398,87.2148438 258.42212,86.9749373 257.419511,86.4951172 L257.419511,84.7333984 C258.064046,85.0055352 258.765861,85.2203768 259.52498,85.3779297 C260.284098,85.5354826 261.036044,85.6142578 261.780839,85.6142578 C262.998293,85.6142578 263.914951,85.3833031 264.530839,84.9213867 C265.146728,84.4594703 265.454667,83.8167359 265.454667,82.9931641 C265.454667,82.4488905 265.345456,82.0030942 265.127031,81.6557617 C264.908605,81.3084293 264.543374,80.9879572 264.031328,80.6943359 C263.519281,80.4007147 262.74048,80.0677102 261.694902,79.6953125 C260.233957,79.1725234 259.190185,78.5530635 258.563554,77.8369141 C257.936923,77.1207646 257.623613,76.1862037 257.623613,75.0332031 C257.623613,73.8229106 258.078361,72.8597041 258.98787,72.1435547 C259.89738,71.4274053 261.100493,71.0693359 262.597245,71.0693359 C264.158451,71.0693359 265.594309,71.3557914 266.904863,71.9287109 L266.335527,73.5185547 C265.039296,72.9742811 263.778892,72.7021484 262.554277,72.7021484 C261.587475,72.7021484 260.831949,72.9098287 260.287675,73.3251953 C259.743402,73.740562 259.471269,74.3170536 259.471269,75.0546875 C259.471269,75.5989611 259.571528,76.0447574 259.77205,76.3920898 C259.972572,76.7394223 260.310948,77.058104 260.787187,77.3481445 C261.263426,77.638185 261.992097,77.9586571 262.973222,78.3095703 C264.620366,78.8968128 265.753655,79.5270149 266.373124,80.2001953 C266.992594,80.8733758 267.302324,81.7470649 267.302324,82.8212891 Z M280.929081,87 L280.929081,71.2949219 L282.755253,71.2949219 L282.755253,87 L280.929081,87 Z M301.680448,87 L299.596464,87 L291.013456,73.8193359 L290.927519,73.8193359 C291.042103,75.3662187 291.099394,76.7841732 291.099394,78.0732422 L291.099394,87 L289.41287,87 L289.41287,71.2949219 L291.47537,71.2949219 L300.036894,84.421875 L300.122831,84.421875 C300.108508,84.2285147 300.076282,83.6072644 300.026151,82.5581055 C299.976021,81.5089466 299.958118,80.7587913 299.972441,80.3076172 L299.972441,71.2949219 L301.680448,71.2949219 L301.680448,87 Z M313.182792,87 L311.35662,87 L311.35662,72.9169922 L306.382987,72.9169922 L306.382987,71.2949219 L318.156425,71.2949219 L318.156425,72.9169922 L313.182792,72.9169922 L313.182792,87 Z M336.061112,79.1259766 C336.061112,81.639661 335.425539,83.6162037 334.154374,85.0556641 C332.883209,86.4951244 331.116137,87.2148438 328.853104,87.2148438 C326.539942,87.2148438 324.754966,86.5076568 323.498124,85.0932617 C322.241282,83.6788666 321.61287,81.6826301 321.61287,79.1044922 C321.61287,76.5478388 322.243072,74.565925 323.503495,73.1586914 C324.763918,71.7514578 326.554265,71.0478516 328.874589,71.0478516 C331.130459,71.0478516 332.892161,71.7639902 334.159745,73.1962891 C335.427329,74.6285879 336.061112,76.6051306 336.061112,79.1259766 Z M323.546464,79.1259766 C323.546464,81.2529403 323.999421,82.8660427 324.90535,83.965332 C325.811279,85.0646214 327.127184,85.6142578 328.853104,85.6142578 C330.593347,85.6142578 331.907462,85.0664117 332.795487,83.9707031 C333.683512,82.8749945 334.127518,81.2601018 334.127518,79.1259766 C334.127518,77.0133358 333.685303,75.4109755 332.800858,74.3188477 C331.916414,73.2267198 330.60767,72.6806641 328.874589,72.6806641 C327.134346,72.6806641 325.811279,73.2303005 324.90535,74.3295898 C323.999421,75.4288792 323.546464,77.0276588 323.546464,79.1259766 Z M361.901737,87 L360.075565,87 L360.075565,79.609375 L351.804081,79.609375 L351.804081,87 L349.977909,87 L349.977909,71.2949219 L351.804081,71.2949219 L351.804081,77.9765625 L360.075565,77.9765625 L360.075565,71.2949219 L361.901737,71.2949219 L361.901737,87 Z M377.314237,87 L368.559354,87 L368.559354,71.2949219 L377.314237,71.2949219 L377.314237,72.9169922 L370.385526,72.9169922 L370.385526,77.9765625 L376.895292,77.9765625 L376.895292,79.5878906 L370.385526,79.5878906 L370.385526,85.3671875 L377.314237,85.3671875 L377.314237,87 Z M384.970877,80.46875 L384.970877,87 L383.144706,87 L383.144706,71.2949219 L387.452323,71.2949219 C389.378765,71.2949219 390.80209,71.6637333 391.722342,72.4013672 C392.642594,73.1390011 393.102713,74.249016 393.102713,75.7314453 C393.102713,77.8082786 392.04999,79.2119104 389.94451,79.9423828 L394.209159,87 L392.049979,87 L388.247245,80.46875 L384.970877,80.46875 Z M384.970877,78.9003906 L387.473807,78.9003906 C388.762876,78.9003906 389.708179,78.644371 390.309745,78.1323242 C390.91131,77.6202774 391.212088,76.8522187 391.212088,75.828125 C391.212088,74.7897083 390.905939,74.0413434 390.293631,73.5830078 C389.681324,73.1246722 388.698423,72.8955078 387.344901,72.8955078 L384.970877,72.8955078 L384.970877,78.9003906 Z M412.726151,79.1259766 C412.726151,81.639661 412.090578,83.6162037 410.819413,85.0556641 C409.548247,86.4951244 407.781175,87.2148438 405.518143,87.2148438 C403.20498,87.2148438 401.420005,86.5076568 400.163163,85.0932617 C398.90632,83.6788666 398.277909,81.6826301 398.277909,79.1044922 C398.277909,76.5478388 398.908111,74.565925 400.168534,73.1586914 C401.428957,71.7514578 403.219303,71.0478516 405.539627,71.0478516 C407.795498,71.0478516 409.557199,71.7639902 410.824784,73.1962891 C412.092368,74.6285879 412.726151,76.6051306 412.726151,79.1259766 Z M400.211502,79.1259766 C400.211502,81.2529403 400.66446,82.8660427 401.570389,83.965332 C402.476318,85.0646214 403.792223,85.6142578 405.518143,85.6142578 C407.258386,85.6142578 408.572501,85.0664117 409.460526,83.9707031 C410.348551,82.8749945 410.792557,81.2601018 410.792557,79.1259766 C410.792557,77.0133358 410.350341,75.4109755 409.465897,74.3188477 C408.581452,73.2267198 407.272709,72.6806641 405.539627,72.6806641 C403.799384,72.6806641 402.476318,73.2303005 401.570389,74.3295898 C400.66446,75.4288792 400.211502,77.0276588 400.211502,79.1259766 Z M427.332987,87 L418.578104,87 L418.578104,71.2949219 L427.332987,71.2949219 L427.332987,72.9169922 L420.404276,72.9169922 L420.404276,77.9765625 L426.914041,77.9765625 L426.914041,79.5878906 L420.404276,79.5878906 L420.404276,85.3671875 L427.332987,85.3671875 L427.332987,87 Z M442.02576,82.8212891 C442.02576,84.2034574 441.524463,85.2812461 440.521854,86.0546875 C439.519245,86.8281289 438.158581,87.2148438 436.439822,87.2148438 C434.577834,87.2148438 433.145557,86.9749373 432.142947,86.4951172 L432.142947,84.7333984 C432.787482,85.0055352 433.489298,85.2203768 434.248416,85.3779297 C435.007535,85.5354826 435.75948,85.6142578 436.504276,85.6142578 C437.72173,85.6142578 438.638387,85.3833031 439.254276,84.9213867 C439.870164,84.4594703 440.178104,83.8167359 440.178104,82.9931641 C440.178104,82.4488905 440.068893,82.0030942 439.850467,81.6557617 C439.632041,81.3084293 439.266811,80.9879572 438.754764,80.6943359 C438.242717,80.4007147 437.463916,80.0677102 436.418338,79.6953125 C434.957393,79.1725234 433.913621,78.5530635 433.28699,77.8369141 C432.66036,77.1207646 432.347049,76.1862037 432.347049,75.0332031 C432.347049,73.8229106 432.801797,72.8597041 433.711307,72.1435547 C434.620817,71.4274053 435.82393,71.0693359 437.320682,71.0693359 C438.881888,71.0693359 440.317746,71.3557914 441.628299,71.9287109 L441.058963,73.5185547 C439.762733,72.9742811 438.502329,72.7021484 437.277713,72.7021484 C436.310911,72.7021484 435.555385,72.9098287 435.011112,73.3251953 C434.466838,73.740562 434.194705,74.3170536 434.194705,75.0546875 C434.194705,75.5989611 434.294965,76.0447574 434.495487,76.3920898 C434.696008,76.7394223 435.034384,77.058104 435.510623,77.3481445 C435.986863,77.638185 436.715534,77.9586571 437.696658,78.3095703 C439.343802,78.8968128 440.477092,79.5270149 441.096561,80.2001953 C441.71603,80.8733758 442.02576,81.7470649 442.02576,82.8212891 Z" id="TURNING-LEADERS-INTO" fill="#008F95"></path>
                <path d="M50.6028214,55 L47.9082601,55 L47.9082601,34.2201773 L40.5695432,34.2201773 L40.5695432,31.8267728 L57.9415384,31.8267728 L57.9415384,34.2201773 L50.6028214,34.2201773 L50.6028214,55 Z M84.1325181,55 L81.4379568,55 L81.4379568,44.0949519 L69.2331792,44.0949519 L69.2331792,55 L66.5386179,55 L66.5386179,31.8267728 L69.2331792,31.8267728 L69.2331792,41.6856971 L81.4379568,41.6856971 L81.4379568,31.8267728 L84.1325181,31.8267728 L84.1325181,55 Z M108.516557,55 L95.5985128,55 L95.5985128,31.8267728 L108.516557,31.8267728 L108.516557,34.2201773 L98.2930741,34.2201773 L98.2930741,41.6856971 L107.898393,41.6856971 L107.898393,44.0632512 L98.2930741,44.0632512 L98.2930741,52.5907452 L108.516557,52.5907452 L108.516557,55 Z M132.304466,31.8267728 L138.850665,31.8267728 C141.92565,31.8267728 144.149962,32.2864287 145.523666,33.2057542 C146.897371,34.1250797 147.584213,35.5780149 147.584213,37.5646034 C147.584213,38.9383082 147.201167,40.0715976 146.435062,40.9645057 C145.668957,41.8574138 144.551518,42.4359462 143.082711,42.7001202 L143.082711,42.8586238 C146.601508,43.4609405 148.360881,45.3101308 148.360881,48.40625 C148.360881,50.4773741 147.66083,52.0940947 146.260708,53.2564603 C144.860586,54.4188259 142.903086,55 140.38815,55 L132.304466,55 L132.304466,31.8267728 Z M134.999027,41.7490986 L139.437128,41.7490986 C141.339181,41.7490986 142.707581,41.4505864 143.542371,40.8535532 C144.377161,40.25652 144.79455,39.2500321 144.79455,37.8340595 C144.79455,36.5343234 144.32961,35.5965198 143.399718,35.0206205 C142.469826,34.4447212 140.990473,34.1567758 138.961617,34.1567758 L134.999027,34.1567758 L134.999027,41.7490986 Z M134.999027,44.0315505 L134.999027,52.7016977 L139.833387,52.7016977 C141.703739,52.7016977 143.111765,52.3397848 144.057508,51.615948 C145.003251,50.8921113 145.476115,49.7588218 145.476115,48.2160457 C145.476115,46.7789391 144.992684,45.722259 144.025807,45.0459736 C143.05893,44.3696881 141.587503,44.0315505 139.611482,44.0315505 L134.999027,44.0315505 Z M175.946692,31.8267728 L175.946692,46.8212139 C175.946692,49.4629539 175.148899,51.5393304 173.553288,53.0504056 C171.957677,54.5614809 169.765066,55.3170072 166.975388,55.3170072 C164.185711,55.3170072 162.027442,54.5561975 160.500516,53.0345553 C158.97359,51.5129131 158.210139,49.4206864 158.210139,46.7578125 L158.210139,31.8267728 L160.9047,31.8267728 L160.9047,46.9480168 C160.9047,48.8817705 161.43304,50.3664061 162.489736,51.4019681 C163.546432,52.4375302 165.099752,52.9553035 167.149742,52.9553035 C169.10463,52.9553035 170.610399,52.4348885 171.667095,51.394043 C172.723791,50.3531974 173.252131,48.8606367 173.252131,46.9163161 L173.252131,31.8267728 L175.946692,31.8267728 Z M193.087116,43.4133864 L199.268757,31.8267728 L202.185223,31.8267728 L194.450247,46.0128456 L194.450247,55 L191.723985,55 L191.723985,46.1396484 L184.00486,31.8267728 L186.953027,31.8267728 L193.087116,43.4133864 Z M208.626654,47.5027794 L208.626654,45.0935246 L216.409181,45.0935246 L216.409181,47.5027794 L208.626654,47.5027794 Z M226.036533,55 L226.036533,31.8267728 L228.731095,31.8267728 L228.731095,55 L226.036533,55 Z M258.298201,55 L255.223231,55 L242.558793,35.5516076 L242.43199,35.5516076 C242.601062,37.8340709 242.685596,39.9262976 242.685596,41.8283504 L242.685596,55 L240.197089,55 L240.197089,31.8267728 L243.240359,31.8267728 L255.873096,51.1959135 L255.999899,51.1959135 C255.978765,50.9106055 255.931214,49.9939355 255.857246,48.4458759 C255.783277,46.8978163 255.75686,45.7909438 255.777994,45.1252254 L255.777994,31.8267728 L258.298201,31.8267728 L258.298201,55 Z M293.577622,55 L285.715843,34.4579327 L285.58904,34.4579327 C285.736977,36.0852445 285.810945,38.0189692 285.810945,40.2591647 L285.810945,55 L283.322438,55 L283.322438,31.8267728 L287.380131,31.8267728 L294.718848,50.9423077 L294.84565,50.9423077 L302.247769,31.8267728 L306.27376,31.8267728 L306.27376,55 L303.579199,55 L303.579199,40.0689603 C303.579199,38.3571128 303.653167,36.4973558 303.801104,34.4896334 L303.674301,34.4896334 L295.749121,55 L293.577622,55 Z M330.657799,55 L317.739755,55 L317.739755,31.8267728 L330.657799,31.8267728 L330.657799,34.2201773 L320.434316,34.2201773 L320.434316,41.6856971 L330.039635,41.6856971 L330.039635,44.0632512 L320.434316,44.0632512 L320.434316,52.5907452 L330.657799,52.5907452 L330.657799,55 Z M348.035978,55 L345.341417,55 L345.341417,34.2201773 L338.0027,34.2201773 L338.0027,31.8267728 L355.374695,31.8267728 L355.374695,34.2201773 L348.035978,34.2201773 L348.035978,55 Z M381.565675,55 L378.871114,55 L378.871114,44.0949519 L366.666336,44.0949519 L366.666336,55 L363.971775,55 L363.971775,31.8267728 L366.666336,31.8267728 L366.666336,41.6856971 L378.871114,41.6856971 L378.871114,31.8267728 L381.565675,31.8267728 L381.565675,55 Z M413.145777,43.3816857 C413.145777,47.0906886 412.207974,50.0071258 410.332338,52.1310847 C408.456703,54.2550437 405.849345,55.3170072 402.510185,55.3170072 C399.097057,55.3170072 396.463282,54.2735356 394.60878,52.186561 C392.754279,50.0995864 391.827042,47.1540905 391.827042,43.349985 C391.827042,39.5775803 392.756921,36.653218 394.616706,34.5768104 C396.476491,32.5004028 399.118191,31.4622145 402.541886,31.4622145 C405.870478,31.4622145 408.469911,32.5188947 410.340263,34.6322867 C412.210615,36.7456786 413.145777,39.6621158 413.145777,43.3816857 Z M394.680107,43.3816857 C394.680107,46.5200728 395.348457,48.9002448 396.685178,50.5222731 C398.021898,52.1443015 399.963548,52.9553035 402.510185,52.9553035 C405.077956,52.9553035 407.016965,52.1469432 408.327268,50.5301983 C409.637571,48.9134535 410.292712,46.5306397 410.292712,43.3816857 C410.292712,40.2644325 409.640212,37.9001107 408.335193,36.2886493 C407.030173,34.677188 405.09909,33.8714694 402.541886,33.8714694 C399.974115,33.8714694 398.021898,34.6824714 396.685178,36.3044997 C395.348457,37.926528 394.680107,40.2855665 394.680107,43.3816857 Z M441.920366,43.1914814 C441.920366,47.0167208 440.882177,49.9410831 438.80577,51.9646559 C436.729362,53.9882288 433.741599,55 429.842391,55 L423.422995,55 L423.422995,31.8267728 L430.523956,31.8267728 C434.12729,31.8267728 436.927492,32.8253356 438.924648,34.822491 C440.921803,36.8196464 441.920366,39.609282 441.920366,43.1914814 Z M439.067301,43.2865835 C439.067301,40.264433 438.309133,37.9872873 436.792774,36.4550781 C435.276415,34.9228689 433.023045,34.1567758 430.032595,34.1567758 L426.117556,34.1567758 L426.117556,52.669997 L429.398581,52.669997 C432.610937,52.669997 435.025451,51.8801286 436.642196,50.3003681 C438.25894,48.7206076 439.067301,46.3827028 439.067301,43.2865835 Z" id="THE-BUY-IN-METHOD" fill="#4A4A4A"></path>
            </g>
        </g>
    </g>
</svg>