<?xml version="1.0" encoding="UTF-8" standalone="no"?>
<svg width="112px" height="136px" viewBox="0 0 112 136" version="1.1" xmlns="http://www.w3.org/2000/svg" xmlns:xlink="http://www.w3.org/1999/xlink">
    <!-- Generator: Sketch 40.2 (33826) - http://www.bohemiancoding.com/sketch -->
    <title>icon-casestudy</title>
    <desc>Created with Sketch.</desc>
    <defs>
        <rect id="path-1" x="0" y="0" width="72" height="96" rx="6"></rect>
        <filter x="-50%" y="-50%" width="200%" height="200%" filterUnits="objectBoundingBox" id="filter-2">
            <feOffset dx="0" dy="0" in="SourceAlpha" result="shadowOffsetOuter1"></feOffset>
            <feGaussianBlur stdDeviation="10" in="shadowOffsetOuter1" result="shadowBlurOuter1"></feGaussianBlur>
            <feComposite in="shadowBlurOuter1" in2="SourceAlpha" operator="out" result="shadowBlurOuter1"></feComposite>
            <feColorMatrix values="0 0 0 0 0.31372549   0 0 0 0 0.890196078   0 0 0 0 0.874509804  0 0 0 0.3 0" type="matrix" in="shadowBlurOuter1"></feColorMatrix>
        </filter>
        <mask id="mask-3" maskContentUnits="userSpaceOnUse" maskUnits="objectBoundingBox" x="0" y="0" width="72" height="96" fill="white">
            <use xlink:href="#path-1"></use>
        </mask>
    </defs>
    <g id="Mockups" stroke="none" stroke-width="1" fill="none" fill-rule="evenodd">
        <g id="Use-Case-Template" transform="translate(-104.000000, -2922.000000)">
            <g id="icon-casestudy" transform="translate(124.000000, 2942.000000)">
                <g id="Rectangle-32">
                    <use fill="black" fill-opacity="1" filter="url(#filter-2)" xlink:href="#path-1"></use>
                    <use stroke="#89C9CC" mask="url(#mask-3)" stroke-width="4" fill="#FFFFFF" fill-rule="evenodd" xlink:href="#path-1"></use>
                </g>
                <g id="icon_casestudy" transform="translate(10.000000, 10.000000)">
                    <g id="ic_subject" fill="#008F95">
                        <g id="Group-4">
                            <path d="M20,35 L0,35 L0,39 L20,39 L20,35 L20,35 Z M32,19 L0,19 L0,23 L32,23 L32,19 L32,19 Z M0,31 L32,31 L32,27 L0,27 L0,31 L0,31 Z" id="Shape"></path>
                            <polygon id="Shape" points="37 0.00889877642 37 12.0222469 53 12.0222469 53 0.00889877642"></polygon>
                            <path d="M44,64 L42.42,64 L41.86,63.46 C43.82,61.18 45,58.22 45,55 C45,47.82 39.18,42 32,42 C24.82,42 19,47.82 19,55 C19,62.18 24.82,68 32,68 C35.22,68 38.18,66.82 40.46,64.86 L41,65.42 L41,67 L51,76.98 L53.98,74 L44,64 L44,64 Z M32,64 C27.02,64 23,59.98 23,55 C23,50.02 27.02,46 32,46 C36.98,46 41,50.02 41,55 C41,59.98 36.98,64 32,64 L32,64 Z" id="Shape"></path>
                        </g>
                    </g>
                    <g id="ic_search" transform="translate(20.000000, 42.000000)"></g>
                </g>
            </g>
        </g>
    </g>
</svg>