<?xml version="1.0" encoding="UTF-8" standalone="no"?>
<svg width="112px" height="136px" viewBox="0 0 112 136" version="1.1" xmlns="http://www.w3.org/2000/svg" xmlns:xlink="http://www.w3.org/1999/xlink">
    <!-- Generator: Sketch 40.2 (33826) - http://www.bohemiancoding.com/sketch -->
    <title>icon-whitepaper</title>
    <desc>Created with Sketch.</desc>
    <defs>
        <rect id="path-1" x="0" y="0" width="72" height="96" rx="6"></rect>
        <filter x="-50%" y="-50%" width="200%" height="200%" filterUnits="objectBoundingBox" id="filter-2">
            <feOffset dx="0" dy="0" in="SourceAlpha" result="shadowOffsetOuter1"></feOffset>
            <feGaussianBlur stdDeviation="10" in="shadowOffsetOuter1" result="shadowBlurOuter1"></feGaussianBlur>
            <feComposite in="shadowBlurOuter1" in2="SourceAlpha" operator="out" result="shadowBlurOuter1"></feComposite>
            <feColorMatrix values="0 0 0 0 0.31372549   0 0 0 0 0.890196078   0 0 0 0 0.874509804  0 0 0 0.3 0" type="matrix" in="shadowBlurOuter1"></feColorMatrix>
        </filter>
        <mask id="mask-3" maskContentUnits="userSpaceOnUse" maskUnits="objectBoundingBox" x="0" y="0" width="72" height="96" fill="white">
            <use xlink:href="#path-1"></use>
        </mask>
    </defs>
    <g id="Mockups" stroke="none" stroke-width="1" fill="none" fill-rule="evenodd">
        <g id="Use-Case-Template" transform="translate(-472.000000, -2922.000000)">
            <g id="icon-whitepaper" transform="translate(492.000000, 2942.000000)">
                <g id="Group-6">
                    <g id="Rectangle-32">
                        <use fill="black" fill-opacity="1" filter="url(#filter-2)" xlink:href="#path-1"></use>
                        <use stroke="#89C9CC" mask="url(#mask-3)" stroke-width="4" fill="#FFFFFF" fill-rule="evenodd" xlink:href="#path-1"></use>
                    </g>
                    <path d="M34,78 L14,78 L14,81 L34,81 L34,78 L34,78 Z M46,62 L14,62 L14,65 L46,65 L46,62 L46,62 Z M14,73 L46,73 L46,70 L14,70 L14,73 L14,73 Z" id="Shape" fill="#007C86"></path>
                    <g id="ic_equalizer" transform="translate(14.000000, 14.000000)" fill="#008F95">
                        <path d="M12,38 L20,38 L20,6 L12,6 L12,38 L12,38 Z M36,38 L44,38 L44,0 L36,0 L36,38 L36,38 Z M0,38 L8,38 L8,22 L0,22 L0,38 L0,38 Z M24,16 L24,38 L32,38 L32,16 L24,16 L24,16 Z" id="Shape"></path>
                    </g>
                </g>
            </g>
        </g>
    </g>
</svg>