<svg xmlns="http://www.w3.org/2000/svg" viewBox="0 0 81.81 52.24"><defs><style>.cls-1{fill:#1dadb3;}</style></defs><title>Asset 1</title><g id="Layer_2" data-name="Layer 2"><g id="Layer_1-2" data-name="Layer 1"><path class="cls-1" d="M67,0H14.79A14.83,14.83,0,0,0,0,14.79V37.46A14.83,14.83,0,0,0,14.79,52.24H67A14.83,14.83,0,0,0,81.81,37.46V14.79A14.83,14.83,0,0,0,67,0ZM54,28,37.67,38.08c-1.9,1.18-3.45.31-3.44-1.92l0-20.4c0-2.23,1.56-3.11,3.47-1.94l16.24,9.9C55.85,24.89,55.86,26.8,54,28Z"/></g></g></svg>