<?xml version="1.0" encoding="UTF-8" standalone="no"?>
<svg width="151px" height="65px" viewBox="0 0 151 65" version="1.1" xmlns="http://www.w3.org/2000/svg" xmlns:xlink="http://www.w3.org/1999/xlink">
    <!-- Generator: Sketch 42 (36781) - http://www.bohemiancoding.com/sketch -->
    <title>logo-NewSlack</title>
    <desc>Created with Sketch.</desc>
    <defs></defs>
    <g id="Mockups" stroke="none" stroke-width="1" fill="none" fill-rule="evenodd">
        <g id="The-Product" transform="translate(-243.000000, -639.000000)">
            <g id="NewSlack" transform="translate(243.000000, 639.000000)">
                <g id="logo-NewSlack">
                    <path d="M112.912538,17 L110.733827,17 L101.760683,3.22021484 L101.670839,3.22021484 C101.790631,4.83741043 101.850527,6.31981748 101.850527,7.66748047 L101.850527,17 L100.087343,17 L100.087343,0.581054688 L102.243593,0.581054688 L111.194277,14.3046875 L111.28412,14.3046875 C111.269146,14.1025381 111.235455,13.4530491 111.183046,12.3562012 C111.130637,11.2593532 111.11192,10.4751 111.126894,10.003418 L111.126894,0.581054688 L112.912538,0.581054688 L112.912538,17 Z M126.580019,17 L117.427187,17 L117.427187,0.581054688 L126.580019,0.581054688 L126.580019,2.27685547 L119.336367,2.27685547 L119.336367,7.56640625 L126.142031,7.56640625 L126.142031,9.25097656 L119.336367,9.25097656 L119.336367,15.2929688 L126.580019,15.2929688 L126.580019,17 Z M144.548769,17 L142.66205,17 L139.349062,6.00537109 C139.191834,5.51871501 139.015892,4.90478886 138.82123,4.16357422 C138.626567,3.42235958 138.525494,2.97688877 138.518007,2.82714844 C138.353293,3.81543463 138.091251,4.8972923 137.731874,6.07275391 L134.51996,17 L132.633242,17 L128.264589,0.581054688 L130.286074,0.581054688 L132.880312,10.722168 C133.239689,12.1447011 133.50173,13.4324487 133.666445,14.5854492 C133.868594,13.2153252 134.16807,11.8751693 134.564882,10.5649414 L137.507265,0.581054688 L139.528749,0.581054688 L142.617128,10.6547852 C142.976505,11.8152727 143.279725,13.125481 143.526796,14.5854492 C143.66905,13.5222929 143.938578,12.2270584 144.33539,10.699707 L146.918398,0.581054688 L148.939882,0.581054688 L144.548769,17 Z" id="SlackNew" fill="#007C86"></path>
                    <g id="Slack_RGB" transform="translate(0.000000, 21.600000)">
                        <g id="Layer_1">
                            <g id="Group" transform="translate(0.000000, 1.371005)">
                                <path d="M27.3859091,2.77628532 C26.7338636,0.822603057 24.6404545,-0.239925892 22.6843182,0.377026401 C20.7281818,1.02825382 19.6643182,3.11903659 20.2820455,5.07271885 L29.9254545,34.6864289 C30.5775,36.5030107 32.5679545,37.5312645 34.4554545,36.9828624 C36.4459091,36.4001853 37.6470455,34.3094025 36.995,32.3899954 C36.995,32.3214451 27.3859091,2.77628532 27.3859091,2.77628532 Z" id="Shape" fill="#ECB32D"></path>
                                <path d="M12.4575,7.60907828 C11.8054545,5.65539602 9.71204545,4.59286707 7.75590909,5.20981936 C5.79977273,5.86104678 4.73590909,7.95182955 5.35363636,9.90551181 L14.9970455,39.5192219 C15.6490909,41.3358036 17.6395455,42.3640574 19.5270455,41.8156554 C21.5175,41.2329782 22.7186364,39.1421955 22.0665909,37.2227883 C22.0665909,37.1542381 12.4575,7.60907828 12.4575,7.60907828 Z" id="Shape" fill="#63C1A0"></path>
                                <path d="M39.5345455,27.2830014 C41.4906818,26.631774 42.5545455,24.5409912 41.9368182,22.5873089 C41.2847727,20.6336267 39.1913636,19.5710977 37.2352273,20.18805 L7.55,29.8536359 C5.73113636,30.5048634 4.70159091,32.4928208 5.25068182,34.3779528 C5.83409091,36.3659101 7.9275,37.5655396 9.84931818,36.9143122 C9.91795455,36.9143122 39.5345455,27.2830014 39.5345455,27.2830014 Z" id="Shape" fill="#E01A59"></path>
                                <path d="M13.7272727,35.6804076 C15.6490909,35.0634553 18.1543182,34.2408522 20.8311364,33.3839741 C20.2134091,31.4645669 19.3897727,28.9624826 18.5318182,26.2890227 L11.4279545,28.5854562 L13.7272727,35.6804076 Z" id="Shape" fill="#331433"></path>
                                <path d="M28.69,30.8133395 C31.3668182,29.9564613 33.8720455,29.1338583 35.7938636,28.516906 C35.1761364,26.5974988 34.3525,24.0954145 33.4945455,21.4219546 L26.3906818,23.7183881 L28.69,30.8133395 Z" id="Shape" fill="#D62027"></path>
                                <path d="M34.6613636,12.373321 C36.6175,11.7220936 37.6813636,9.63131079 37.0636364,7.67762853 C36.4115909,5.72394627 34.3181818,4.66141732 32.3620455,5.27836962 L2.71113636,14.9096804 C0.892272727,15.5609078 -0.137272727,17.5488652 0.411818182,19.4339972 C0.995227273,21.4219546 3.08863636,22.6215841 5.01045455,21.9703566 C5.07909091,21.9703566 34.6613636,12.373321 34.6613636,12.373321 Z" id="Shape" fill="#89D3DF"></path>
                                <path d="M8.88840909,20.7364521 C10.8102273,20.1194998 13.3154545,19.2968967 15.9922727,18.4400185 C15.1343182,15.7665586 14.3106818,13.2644743 13.6929545,11.3450672 L6.58909091,13.6415007 L8.88840909,20.7364521 Z" id="Shape" fill="#258B74"></path>
                                <path d="M23.8168182,15.9036591 C26.4936364,15.0467809 28.9988636,14.2241779 30.9206818,13.6072256 C30.0627273,10.9337656 29.2390909,8.43168133 28.6213636,6.5122742 L21.5175,8.80870774 L23.8168182,15.9036591 Z" id="Shape" fill="#819C3C"></path>
                            </g>
                            <path d="M69.5972727,11.9277443 C70.9013636,12.5104215 71.0043182,12.921723 69.9747727,14.8754053 C68.9109091,16.8633627 68.6706818,17.0004632 67.3665909,16.4863363 C65.7536364,15.8008337 63.6602273,15.2867068 62.3218182,15.2867068 C60.1254545,15.2867068 58.6840909,16.0750347 58.6840909,17.2746642 C58.6840909,21.2163038 71.2445455,19.0912459 71.2445455,27.454377 C71.2445455,31.6702177 67.6068182,34.4807781 62.1845455,34.4807781 C59.3361364,34.4807781 55.8013636,33.5210746 53.3647727,32.28717 C52.1636364,31.6702177 52.0606818,31.3274664 53.1245455,29.3052339 C54.0168182,27.5572024 54.3256818,27.3515516 55.6297727,27.8999537 C57.6888636,28.791107 60.3313636,29.5108847 62.0815909,29.5108847 C64.0720455,29.5108847 65.4104545,28.6882816 65.4104545,27.5229273 C65.4104545,23.7183881 52.6097727,25.5349699 52.6097727,17.4117647 C52.6097727,13.0930987 56.2131818,10.213988 61.6011364,10.213988 C64.2093182,10.1797128 67.4009091,10.9337656 69.5972727,11.9277443 Z" id="Shape" fill="#2D333A"></path>
                            <path d="M79.7554545,1.98795739 L79.7554545,33.2468736 C79.7554545,33.7267253 79.2406818,34.2065771 78.5543182,34.2065771 L75.2597727,34.2065771 C74.5390909,34.2065771 74.0586364,33.6924502 74.0586364,33.2468736 L74.0586364,1.98795739 C74.0586364,0.445576656 74.5047727,0.308476146 76.9070455,0.308476146 C79.6525,0.274201019 79.7554545,0.479851783 79.7554545,1.98795739 Z" id="Shape" fill="#2D333A"></path>
                            <path d="M103.160455,19.5368226 L103.160455,33.0069477 C103.160455,33.7267253 102.645682,34.2065771 101.959318,34.2065771 L98.6990909,34.2065771 C97.9440909,34.2065771 97.4293182,33.6581751 97.4979545,32.9041223 L97.5322727,31.4645669 C95.7820455,33.4182492 93.2425,34.446503 90.7029545,34.446503 C85.7954545,34.446503 82.5009091,31.6016674 82.5009091,27.3858268 C82.5009091,22.8957851 86.2072727,19.8452987 91.8011364,19.8452987 C93.9288636,19.8452987 95.8506818,20.2223252 97.4293182,20.8735526 L97.4293182,19.3311718 C97.4293182,16.8633627 95.4731818,15.3895322 92.1443182,15.3895322 C90.6,15.3895322 88.6781818,16.0064845 87.1681818,16.8976378 C86.0013636,17.5488652 85.7268182,17.5145901 84.4570455,15.6294581 C83.2215909,13.7443261 83.2559091,13.4015748 84.4570455,12.6132469 C86.7563636,11.1394164 89.845,10.1797128 92.6934091,10.1797128 C99.1109091,10.1797128 103.160455,13.6415007 103.160455,19.5368226 Z M87.9918182,27.3515516 C87.9918182,28.9624826 89.3645455,30.0250116 91.3893182,30.0250116 C93.8602273,30.0250116 96.1252273,28.8253821 97.4293182,26.8031496 L97.4293182,24.7123668 C96.1252273,24.1982399 94.5122727,23.9240389 93.1052273,23.9240389 C90.0165909,23.9240389 87.9918182,25.3635943 87.9918182,27.3515516 Z" id="Shape" fill="#2D333A"></path>
                            <path d="M125.467273,11.9620195 C126.668409,12.647522 126.702727,13.0245484 125.398636,15.0467809 C124.163182,16.9661881 123.957273,17.0690134 122.618864,16.417786 C121.623636,15.9036591 120.010682,15.4580824 118.706591,15.4580824 C114.588409,15.4580824 111.842955,18.1658175 111.842955,22.2788328 C111.842955,26.5289486 114.588409,29.4080593 118.706591,29.4080593 C120.147955,29.4080593 121.9325,28.8596572 123.099318,28.2084298 C124.300455,27.5229273 124.540682,27.5572024 125.810455,29.4080593 C126.942955,31.1218157 126.942955,31.5331172 125.913409,32.2528949 C124.060227,33.5210746 121.1775,34.4807781 118.603636,34.4807781 C110.985,34.4807781 105.871591,29.6137101 105.871591,22.2788328 C105.871591,15.0125058 110.985,10.1797128 118.672273,10.1797128 C121.005909,10.1797128 123.751364,10.9680408 125.467273,11.9620195 Z" id="Shape" fill="#2D333A"></path>
                            <path d="M150.382273,31.2589162 C151.343182,32.4585456 150.965682,32.9041223 148.563409,33.7610005 C146.126818,34.6521538 145.783636,34.5836035 144.925682,33.4867994 L138.096364,24.4038907 L135.042045,27.3515516 L135.042045,33.2468736 C135.042045,33.7267253 134.527273,34.2065771 133.840909,34.2065771 L130.546364,34.2065771 C129.825682,34.2065771 129.345227,33.6924502 129.345227,33.2468736 L129.345227,1.98795739 C129.345227,0.445576656 129.791364,0.308476146 132.193636,0.308476146 C134.973409,0.308476146 135.042045,0.514126911 135.042045,1.98795739 L135.042045,19.7424734 L144.376591,10.7966651 C145.406136,9.83696156 145.989545,9.90551181 147.808409,11.1051413 C149.833182,12.4075961 149.970455,12.7846225 149.009545,13.7100509 L142.077273,20.4965262 L150.382273,31.2589162 Z" id="Shape" fill="#2D333A"></path>
                        </g>
                    </g>
                </g>
            </g>
        </g>
    </g>
</svg>